<svg width="1000" height="437" viewBox="0 0 1000 437" fill="none" xmlns="http://www.w3.org/2000/svg">
<path d="M896.686 411.887C896.42 415.236 896.08 417.67 895.741 418.083C894.488 419.619 845.178 420.872 842.742 420.562C840.323 420.252 841.104 420.711 840.323 420.252C839.717 419.899 840.027 416.327 840.204 414.6C846.741 414.646 871.589 414.675 882.461 413.612C889.603 412.92 894.12 412.3 896.686 411.887Z" fill="#AD4D40"/>
<path d="M930.722 411.887C930.457 415.236 930.118 417.67 929.778 418.083C928.524 419.619 879.213 420.872 876.779 420.562C874.357 420.252 875.14 420.711 874.357 420.252C873.753 419.899 874.064 416.327 874.241 414.6C880.777 414.646 905.624 414.675 916.498 413.612C923.639 412.92 928.154 412.3 930.722 411.887Z" fill="#B75542"/>
<path d="M286.303 65.2217H461.697C468.182 65.2217 473.44 70.4794 473.44 76.9646V99.2515C473.44 105.737 468.182 110.994 461.697 110.994H286.303C279.816 110.994 274.559 105.737 274.559 99.2515V76.9646C274.559 70.4794 279.816 65.2217 286.303 65.2217Z" fill="#2A4803"/>
<path d="M473.44 88.7682H358.523C358.158 88.7682 357.863 88.4733 357.863 88.1082C357.863 87.7448 358.158 87.4482 358.523 87.4482H473.44C473.803 87.4482 474.1 87.7448 474.1 88.1082C474.1 88.4733 473.803 88.7682 473.44 88.7682Z" fill="#FF9E3E"/>
<path d="M962.366 417.158C962.366 427.678 746.935 436.206 481.183 436.206C215.433 436.206 0 427.678 0 417.158C0 406.638 215.433 398.112 481.183 398.112C746.935 398.112 962.366 406.638 962.366 417.158Z" fill="#EAD8CE"/>
<path d="M468.201 99.8164H693.626L668.61 172.805H510.081L468.201 99.8164Z" fill="#FFBA76"/>
<path d="M584.43 219.629C579.397 226.475 575.424 231.256 574.142 231.691C569.403 233.319 461.741 170.31 456.922 166.399C452.133 162.509 453.204 164.535 452.133 162.509C451.304 160.942 456.728 153.68 459.409 150.205C460.315 149.099 460.901 148.365 460.901 148.365C460.901 148.365 469.041 135.236 482.431 134.668C495.802 134.132 513.617 141.443 513.617 141.443C513.617 141.443 553.26 139.459 556.172 139.86C559.087 140.26 567.684 131.629 568.916 131.91C570.126 132.222 616.113 162.573 617.709 166.372C618.845 169.141 597.818 201.502 584.43 219.629Z" fill="#BF9E90"/>
<path d="M584.43 219.629C579.397 226.475 575.424 231.256 574.142 231.691C569.403 233.319 461.741 170.31 456.922 166.399C452.133 162.509 453.204 164.535 452.133 162.509C451.304 160.942 456.728 153.68 459.409 150.205C473.4 159.01 526.767 192.182 551.557 204.387C567.831 212.412 578.361 217.098 584.43 219.629Z" fill="#F4E0D7"/>
<path d="M559.75 151.717C559.481 151.717 559.218 151.579 559.066 151.33L552.379 140.23C552.154 139.853 552.275 139.364 552.651 139.136C553.027 138.91 553.517 139.032 553.746 139.409L560.432 150.509C560.659 150.885 560.538 151.375 560.16 151.603C560.032 151.681 559.889 151.717 559.75 151.717Z" fill="#AF4D04"/>
<path d="M545.4 156.736C545.166 156.736 544.935 156.632 544.777 156.436L532.482 141.03C532.206 140.687 532.264 140.185 532.608 139.91C532.951 139.636 533.452 139.692 533.727 140.035L546.022 155.441C546.298 155.784 546.24 156.286 545.896 156.56C545.749 156.678 545.574 156.736 545.4 156.736Z" fill="#AF4D04"/>
<path d="M543.741 141.793C543.54 141.793 543.339 141.718 543.183 141.565C542.869 141.258 542.862 140.754 543.17 140.438C543.31 140.295 557.212 125.987 556.297 118.435C556.131 117.08 555.484 116.068 554.314 115.342C553.115 114.6 552.008 114.482 550.937 114.976C546.089 117.217 543.012 131.069 542.236 136.217C542.174 136.628 541.831 136.939 541.389 136.893C540.973 136.863 540.651 136.517 540.651 136.099C540.642 126.92 539.177 102.332 532.593 98.8361C531.255 98.1266 529.756 98.353 528.006 99.5359C525.959 100.916 524.763 102.857 524.352 105.466C522.402 117.834 539.306 139.579 539.478 139.797C539.749 140.145 539.688 140.646 539.342 140.917C538.995 141.188 538.494 141.129 538.223 140.781C537.506 139.868 520.721 118.263 522.777 105.218C523.255 102.19 524.714 99.834 527.116 98.2143C529.367 96.6919 531.462 96.4272 533.342 97.4284C539.722 100.816 541.531 119 542.043 129.198C543.503 123.299 546.167 115.425 550.267 113.528C551.844 112.801 553.485 112.956 555.155 113.989C556.738 114.969 557.655 116.403 557.878 118.244C558.886 126.551 544.906 140.945 544.31 141.554C544.154 141.714 543.946 141.793 543.741 141.793Z" fill="#AF4D04"/>
<path d="M668.61 174.223V394.11C668.61 407.951 657.305 419.255 643.463 419.255H326.502C312.661 419.255 301.356 407.951 301.356 394.11V183.964C301.356 170.123 312.661 172.806 326.502 172.806H643.463C657.305 172.806 668.61 174.223 668.61 174.223Z" fill="#FFBA76"/>
<path d="M510.081 173.693V394.11C510.081 407.951 502.973 419.255 494.272 419.255H295.001C286.298 419.255 279.191 407.951 279.191 394.11V183.964C279.191 170.123 286.298 158.924 295.001 158.924H494.272C502.973 158.924 510.081 172.806 510.081 173.693Z" fill="#FF9E3E"/>
<path d="M280.92 172.807L218.93 81.8672H468.201L510.08 172.807H280.92Z" fill="#FF9E3E"/>
<path d="M440.582 174.167H282.053C281.3 174.167 280.691 173.558 280.691 172.807C280.691 172.054 281.3 171.445 282.053 171.445H440.582C441.333 171.445 441.943 172.054 441.943 172.807C441.943 173.558 441.333 174.167 440.582 174.167Z" fill="#FFBA76"/>
<path d="M668.61 174.167H510.08C509.329 174.167 508.72 173.558 508.72 172.807C508.72 172.054 509.329 171.445 510.08 171.445H668.61C669.361 171.445 669.97 172.054 669.97 172.807C669.97 173.558 669.361 174.167 668.61 174.167Z" fill="white"/>
<path d="M653.332 313.458C653.332 346.917 626.206 374.043 592.747 374.043C559.286 374.043 532.161 346.917 532.161 313.458C532.161 279.999 559.286 252.872 592.747 252.872C626.206 252.872 653.332 279.999 653.332 313.458Z" fill="#E8E8E8"/>
<path d="M628.253 282.911C618.998 278.033 604.609 286.581 593.772 302.443C582.941 286.576 568.556 278.025 559.299 282.898C548.581 288.542 545.804 309.151 557.476 329.65C569.336 350.481 593.76 359.839 593.76 359.839C593.76 359.839 618.064 349.437 629.883 329.664C641.987 309.419 638.97 288.559 628.253 282.911Z" fill="#F2513B"/>
<path d="M86.1094 187.057L118.578 217.297H89.1511L86.1094 187.057Z" fill="#913D97"/>
<path d="M73.8751 170.944C73.8751 170.944 86.5347 181.181 81.0618 188.512C75.5905 195.846 66.4238 187.931 66.4238 187.931L73.8751 170.944Z" fill="black"/>
<path d="M53.6438 168.232C53.301 167.897 42.6709 172.528 40.5283 186.672C38.3841 200.818 49.7858 203.389 49.7858 203.389L65.4712 194.559L59.4291 167.61L53.6438 168.232Z" fill="black"/>
<path d="M87.6983 369.872C87.6983 369.872 94.9009 379.978 95.1815 381.948C95.462 383.92 89.9541 387.488 89.9541 387.488L103.226 404.006H73.8096L72.3652 372.131L87.6983 369.872Z" fill="#896963"/>
<path d="M67.9989 155.417C67.9989 155.417 57.5059 150.561 52.8062 159.176C48.2451 167.54 54.9998 175.308 54.9998 175.308L66.5896 163.248L67.9989 155.417Z" fill="black"/>
<path d="M78.5459 400.071L53.9505 400.086L53.9346 374.577L78.5299 374.562L78.5459 400.071Z" fill="#FFB996"/>
<path d="M53.9568 255.141C53.9568 255.141 49.8836 269.634 49.6492 298.1C49.4468 322.678 44.9113 377.214 46.759 379.802C48.6082 382.389 86.3159 380.911 87.7953 380.172C89.2747 379.432 89.6446 362.426 89.6446 362.426C89.6446 362.426 114.782 320.282 118.111 313.258C121.438 306.234 99.6259 245.004 99.6259 245.004L53.9568 255.141Z" fill="#FADC7A"/>
<path d="M62.6567 185.945C62.6567 185.945 44.9116 192.43 42.6941 202.332C40.4766 212.232 56.0025 251.833 60.0693 253.198C64.1361 254.564 96.669 247.395 99.6263 245.006C102.584 242.616 99.2564 218.036 98.5167 214.622C97.777 211.207 94.8198 197.552 90.7529 191.748C86.6861 185.945 83.359 185.562 79.2938 185.562C75.227 185.562 62.6567 185.945 62.6567 185.945Z" fill="#0F066F"/>
<path d="M59.4287 179.483L60.3103 188.513C60.3103 188.513 62.1946 190.949 67.5193 190.863C71.4857 190.797 72.7817 189.772 72.7817 189.772L71.7854 185.253L70.8081 180.846L61.0628 179.679L59.4287 179.483Z" fill="#FFB996"/>
<path d="M61.0625 179.679C61.1087 179.923 61.2315 180.205 61.41 180.525C63.8731 184.838 69.4926 185.271 71.7851 185.252L70.8079 180.846L61.0625 179.679Z" fill="black"/>
<path d="M70.8082 160.065C70.8082 160.065 76.6541 170.923 75.4027 177.397C74.1496 183.871 68.3021 183.348 64.7518 182.409C61.2015 181.468 59.4272 179.485 59.4272 179.485C59.4272 179.485 56.2946 180.843 53.8937 178.023C51.4912 175.205 52.5354 171.654 54.3098 170.714C56.0857 169.775 58.383 170.923 58.383 170.923L56.3982 167.79C56.3982 167.79 62.2457 150.561 70.8082 160.065Z" fill="#FFB996"/>
<path d="M71.6733 173.644C71.4597 173.644 71.2859 173.471 71.2859 173.255C71.2859 169.616 69.6503 168.321 69.6343 168.309C69.4637 168.18 69.4302 167.936 69.5578 167.765C69.6869 167.596 69.9276 167.561 70.0998 167.687C70.1795 167.746 72.0623 169.192 72.0623 173.255C72.0623 173.471 71.8885 173.644 71.6733 173.644Z" fill="black"/>
<path d="M69.0959 177.576C68.2112 177.576 67.0554 177.247 66.2551 176.045C66.1371 175.867 66.1849 175.624 66.3635 175.506C66.542 175.387 66.7828 175.435 66.9023 175.613C67.9736 177.22 69.6842 176.732 69.7543 176.71C69.9584 176.648 70.1768 176.764 70.239 176.97C70.3011 177.175 70.1864 177.392 69.9823 177.454C69.7543 177.525 69.4467 177.576 69.0959 177.576Z" fill="black"/>
<path d="M58.4336 176.217C58.3491 176.217 58.2646 176.191 58.1929 176.132L54.4337 173.157C54.2664 173.024 54.2377 172.78 54.3716 172.612C54.5039 172.443 54.7494 172.415 54.9168 172.547L58.6759 175.525C58.8433 175.657 58.872 175.901 58.7397 176.07C58.6632 176.167 58.5484 176.217 58.4336 176.217Z" fill="black"/>
<path d="M54.6758 176.219C54.5419 176.219 54.4112 176.148 54.3379 176.024C54.2311 175.839 54.2948 175.602 54.4813 175.493L56.6574 174.24C56.844 174.135 57.0799 174.199 57.1883 174.384C57.2951 174.57 57.2313 174.808 57.0448 174.914L54.8687 176.168C54.8082 176.201 54.7412 176.219 54.6758 176.219Z" fill="black"/>
<path d="M56.2781 417.141C54.2917 417.049 52.7278 415.332 52.7214 413.236C52.6975 404.952 52.8059 385.775 54.3379 385.771C56.2908 385.767 74.7246 391.605 74.7246 391.605C74.7246 391.605 75.2522 380.126 83.3508 382.165C89.565 383.728 96.7803 391.011 99.8014 394.312C100.759 395.361 101.976 396.09 103.321 396.418C109.11 397.829 125.036 402.471 125.286 410.897C125.594 421.199 121.404 420.033 119.45 420.038C117.773 420.043 69.824 417.782 56.2781 417.141Z" fill="#A7675F"/>
<path d="M58.3829 170.923C58.3829 170.923 63.301 171.551 66.2774 165.911C69.2522 160.274 68.7819 158.08 68.7819 158.08L72.541 163.406C72.541 163.406 73.0113 159.491 71.288 157.141C69.5663 154.791 67.9992 155.418 67.9992 155.418L57.5061 158.864L55.3125 167.634L58.3829 170.923Z" fill="black"/>
<path d="M66.4849 170.162C66.3223 170.162 66.1709 170.06 66.1167 169.898L65.4902 168.02C65.4551 167.91 65.4678 167.792 65.5252 167.696L66.2458 166.496C66.3558 166.309 66.5933 166.249 66.7799 166.362C66.9632 166.472 67.0238 166.709 66.9138 166.896L66.2841 167.942L66.8548 169.652C66.9217 169.856 66.8117 170.076 66.6093 170.145C66.5678 170.156 66.5264 170.162 66.4849 170.162Z" fill="black"/>
<path d="M72.9588 168.908C72.7962 168.908 72.6448 168.808 72.5906 168.644L71.9625 166.766C71.929 166.662 71.9401 166.551 71.9911 166.456L72.793 164.974C72.8951 164.786 73.1294 164.714 73.3207 164.816C73.5088 164.918 73.579 165.154 73.4769 165.344L72.7548 166.678L73.3271 168.398C73.3956 168.602 73.2856 168.822 73.0816 168.891C73.0401 168.902 72.9987 168.908 72.9588 168.908Z" fill="black"/>
<path d="M72.5408 163.795C72.4834 163.79 70.7489 163.527 70.7489 163.527C70.5369 163.496 70.3902 163.296 70.4237 163.084C70.4556 162.872 70.6533 162.724 70.8653 162.759L72.5982 163.02C72.8118 163.052 72.9585 163.252 72.925 163.464C72.8963 163.657 72.7305 163.795 72.5408 163.795Z" fill="black"/>
<path d="M66.2181 165.07C66.0969 165.07 65.979 165.013 65.9024 164.908C65.7781 164.734 65.8179 164.49 65.9917 164.366L67.7724 163.089C67.9446 162.963 68.1885 163.004 68.3145 163.179C68.4404 163.353 68.4006 163.596 68.2252 163.721L66.4461 164.997C66.3775 165.046 66.2978 165.07 66.2181 165.07Z" fill="black"/>
<path d="M102.817 252.967H66.2876C64.9883 252.967 63.9346 251.913 63.9346 250.61V208.626C63.9346 207.326 64.9883 206.272 66.2876 206.272H102.817C104.116 206.272 105.172 207.326 105.172 208.626V250.61C105.172 251.913 104.116 252.967 102.817 252.967Z" fill="#FF9E3E"/>
<path d="M119.248 252.967H82.7199C81.419 252.967 80.3652 251.913 80.3652 250.61V208.626C80.3652 207.326 81.419 206.272 82.7199 206.272H119.248C120.549 206.272 121.602 207.326 121.602 208.626V250.61C121.602 251.913 120.549 252.967 119.248 252.967Z" fill="#FCB465"/>
<path d="M90.3895 358.781C90.1774 358.78 90.0053 358.607 90.0068 358.397L90.2826 272.498C90.2842 272.396 90.3241 272.3 90.3942 272.229L98.8308 263.764C98.9806 263.615 99.2229 263.615 99.3728 263.764C99.5226 263.913 99.5226 264.154 99.3728 264.306L91.0479 272.658L90.7721 358.4C90.7721 358.609 90.5999 358.781 90.3895 358.781Z" fill="#F7C537"/>
<path d="M55.748 279.447C55.5615 279.447 55.3957 279.308 55.3702 279.117C55.3399 278.906 55.4865 278.713 55.6954 278.685C59.2664 278.186 61.9494 276.76 63.6712 274.442C66.4993 270.64 65.7739 265.687 65.766 265.639C65.7341 265.429 65.8776 265.234 66.0864 265.202C66.2841 265.164 66.4897 265.312 66.5232 265.521C66.5567 265.738 67.3044 270.843 64.2865 274.901C62.4357 277.387 59.5821 278.916 55.8022 279.443C55.7847 279.445 55.7671 279.447 55.748 279.447Z" fill="#F7C537"/>
<path d="M67.674 191.703C62.9472 191.703 59.9581 188.746 59.9182 188.704C59.7699 188.554 59.7731 188.31 59.9214 188.162C60.0713 188.017 60.3136 188.017 60.4634 188.165C60.6771 188.384 65.7865 193.405 73.351 189.442C73.5375 189.345 73.7686 189.417 73.8675 189.605C73.9663 189.791 73.8946 190.023 73.7065 190.121C71.4905 191.28 69.4579 191.703 67.674 191.703Z" fill="white"/>
<path d="M126.356 225.352C126.356 225.352 133.894 226.665 131.354 230.019C128.816 233.374 114.991 234.238 113.767 230.054C112.544 225.871 126.356 225.352 126.356 225.352Z" fill="#FFB996"/>
<path d="M125.902 219.036C125.902 219.036 133.44 220.351 130.902 223.704C128.362 227.058 114.537 227.924 113.313 223.739C112.09 219.556 125.902 219.036 125.902 219.036Z" fill="#FFB996"/>
<path d="M123.723 213.068C123.723 213.068 130.494 213.078 128.786 216.386C127.077 219.694 115.153 222.532 113.455 219.067C111.757 215.605 123.723 213.068 123.723 213.068Z" fill="#FFB996"/>
<path d="M89.0107 233.289C89.0107 233.289 95.92 228.565 98.5951 227.668C101.954 226.539 111.448 226.188 111.448 226.188C111.448 226.188 119.215 226.568 118.299 229.047C117.384 231.526 113.993 231.727 113.322 232.612C112.651 233.498 118.355 240.337 117.19 242.003C115.32 244.676 106.301 248.322 101.168 247.801C96.0364 247.278 89.9306 243.006 89.9306 243.006L89.0107 233.289Z" fill="#FFB996"/>
<path d="M102.233 229.231C102.086 229.231 101.943 229.143 101.881 228.998C101.799 228.803 101.889 228.579 102.083 228.496L107.417 226.224C107.612 226.139 107.838 226.23 107.919 226.426C108.002 226.621 107.911 226.846 107.719 226.929L102.384 229.2C102.335 229.221 102.286 229.231 102.233 229.231Z" fill="black"/>
<path d="M44.4229 198.434C44.4229 198.434 26.9266 220.134 37.858 246.513C46.7282 267.922 69.6815 265.2 81.5121 261.502C93.3426 257.805 102.345 251.493 102.345 251.493L92.7863 229.028C92.7863 229.028 74.2441 232.28 62.4135 231.172C50.5829 230.064 44.4229 198.434 44.4229 198.434Z" fill="#0F066F"/>
<path d="M55.4852 227.816C54.6833 227.816 53.9022 227.988 53.1912 228.406C52.6826 228.702 52.5997 228.894 52.6109 228.94C52.807 229.724 57.6342 230.461 62.4168 230.732C60.9884 229.67 58.122 227.816 55.4852 227.816ZM63.587 231.554C60.9406 231.449 52.3271 230.96 51.8696 229.125C51.7468 228.642 52.0625 228.178 52.8038 227.746C57.2596 225.141 63.5726 230.649 63.8388 230.885C63.96 230.993 64.0014 231.164 63.9409 231.315C63.8819 231.46 63.7416 231.554 63.587 231.554Z" fill="white"/>
<path d="M116.308 220.957C116.124 220.957 115.963 220.823 115.931 220.635C115.897 220.426 116.039 220.23 116.248 220.195L125.842 218.656C126.057 218.626 126.247 218.766 126.28 218.975C126.314 219.183 126.172 219.379 125.963 219.414L116.369 220.952C116.348 220.955 116.329 220.957 116.308 220.957Z" fill="black"/>
<path d="M117.818 226.942C117.624 226.942 117.458 226.794 117.437 226.596C117.418 226.386 117.571 226.198 117.783 226.177L127.497 225.236C127.707 225.216 127.895 225.37 127.916 225.581C127.935 225.791 127.782 225.979 127.57 226L117.856 226.94C117.844 226.942 117.831 226.942 117.818 226.942Z" fill="black"/>
<path d="M568.136 92.0979C568.136 92.0979 572.778 97.2504 577.066 95.3039C581.355 93.359 574.626 78.7051 574.626 78.7051L568.136 92.0979Z" fill="#F98875"/>
<path d="M567.391 101.461C564.63 109.498 562.268 115.246 561.176 116.045C557.137 119.014 435.573 91.0273 429.805 88.7348C424.074 86.452 425.702 88.0653 424.074 86.4519C422.815 85.2037 425.823 76.654 427.344 72.5377C427.878 71.2098 428.219 70.3346 428.219 70.3346C428.219 70.3346 432.066 55.373 444.676 50.8327C457.277 46.3291 476.461 47.9886 476.461 47.9886C476.461 47.9886 513.705 34.2562 516.603 33.7684C519.503 33.2821 525.134 22.4766 526.392 22.3762C527.642 22.3124 580.591 37.5466 583.249 40.6967C585.16 42.9988 574.757 80.1612 567.391 101.461Z" fill="#BF9E90"/>
<path d="M567.391 101.463C564.63 109.499 562.268 115.248 561.176 116.046C557.137 119.015 435.573 91.0286 429.805 88.7362C424.074 86.4533 425.702 88.0666 424.074 86.4533C422.815 85.205 425.823 76.6553 427.344 72.5391C443.326 76.7637 504.162 92.4857 531.466 96.7327C549.393 99.5321 560.842 100.858 567.391 101.463Z" fill="#F4E0D7"/>
<path d="M523.319 44.0564C523.131 44.0564 522.943 43.9894 522.79 43.8555L513.094 35.258C512.766 34.9662 512.734 34.4625 513.027 34.1325C513.319 33.8009 513.823 33.7722 514.153 34.0655L523.849 42.6631C524.177 42.9548 524.209 43.4586 523.916 43.787C523.758 43.9655 523.539 44.0564 523.319 44.0564Z" fill="#AF4D04"/>
<path d="M511.122 53.1275C510.968 53.1275 510.811 53.0829 510.674 52.9904L494.342 41.9601C493.978 41.713 493.881 41.2188 494.128 40.8538C494.377 40.4887 494.873 40.3962 495.236 40.6386L511.569 51.6688C511.932 51.9159 512.029 52.4117 511.782 52.7768C511.628 53.0048 511.377 53.1275 511.122 53.1275Z" fill="#AF4D04"/>
<path d="M500.198 40.149C500.04 40.149 499.884 40.1027 499.747 40.0071C498.79 39.3503 476.32 23.743 474.388 10.6785C473.938 7.64635 474.629 4.96171 476.437 2.69953C478.131 0.576057 480.057 -0.299161 482.142 0.0898239C489.243 1.41779 496.399 18.2334 499.934 27.8114C499.567 21.7471 499.758 13.4365 503.104 10.4011C504.391 9.23736 506.006 8.89301 507.906 9.38084C509.711 9.84475 511.013 10.9384 511.777 12.6298C515.217 20.2581 506.173 38.169 505.786 38.9278C505.587 39.3232 505.102 39.4746 504.715 39.2753C504.322 39.076 504.165 38.5962 504.365 38.204C504.456 38.0255 513.452 20.2198 510.323 13.285C509.76 12.0384 508.84 11.2684 507.508 10.9256C506.143 10.5733 505.051 10.7885 504.176 11.584C500.22 15.1678 501.419 29.3068 502.215 34.4529C502.279 34.8658 502.014 35.2563 501.607 35.3504C501.198 35.4445 500.791 35.2117 500.667 34.8148C497.915 26.0562 489.174 3.02794 481.85 1.65693C480.362 1.37635 478.998 2.04591 477.682 3.69432C476.14 5.6233 475.579 7.83287 475.965 10.4458C477.796 22.8295 500.423 38.5372 500.649 38.695C501.013 38.9437 501.104 39.4411 500.855 39.803C500.699 40.0278 500.45 40.149 500.198 40.149Z" fill="#AF4D04"/>
<path d="M575.255 95.7257C575.255 95.7257 597.532 120.311 621.107 112.082C643.587 104.234 618.152 89.3329 618.152 89.3329C618.152 89.3329 594.961 89.6119 577.066 81.126L575.255 95.7257Z" fill="#F98875"/>
<path d="M660.827 65.1414C660.827 65.1414 673.281 43.202 673.509 29.291C673.737 15.3784 686.747 28.1145 686.747 28.1145L689.312 33.3626C689.312 33.3626 690.135 64.2502 679.548 75.2853C666.558 88.8233 660.827 65.1414 660.827 65.1414Z" fill="#F98875"/>
<path d="M687.51 38.0741C687.51 38.0741 692.345 26.6643 692.826 18.8958C693.308 11.1288 691.717 8.38203 690.575 8.14927C689.432 7.91652 688.047 12.7119 688.047 12.7119C688.047 12.7119 688.299 5.39928 685.786 4.93536C683.274 4.46986 682.34 10.8658 682.34 10.8658C682.34 10.8658 681.442 5.60653 679.384 6.51523C677.324 7.42233 676.6 19.3023 676.6 19.3023C676.6 19.3023 675.019 13.3559 673.418 14.0367C671.816 14.7174 670.646 23.3962 671.78 26.599C672.911 29.8017 675.869 33.6964 675.869 33.6964L687.51 38.0741Z" fill="#F98875"/>
<path d="M681.2 30.5207C680.996 30.5207 680.828 30.3613 680.817 30.1556C680.442 22.191 676.443 19.6546 676.401 19.6291C676.223 19.5191 676.165 19.2848 676.274 19.1046C676.384 18.9261 676.616 18.8655 676.798 18.9739C676.978 19.0823 681.185 21.7127 681.582 30.119C681.592 30.331 681.429 30.5096 681.219 30.5191C681.212 30.5207 681.206 30.5207 681.2 30.5207Z" fill="black"/>
<path d="M689.029 21.434C688.99 21.434 688.95 21.4276 688.912 21.4164L676.656 17.5042C676.455 17.4389 676.342 17.2237 676.407 17.0212C676.471 16.8187 676.685 16.7103 676.889 16.7741L689.146 20.6863C689.347 20.75 689.459 20.9653 689.394 21.1677C689.343 21.3303 689.191 21.434 689.029 21.434Z" fill="black"/>
<path d="M637.707 48.0018C637.707 48.0018 645.075 43.9111 652.221 49.8622C659.366 55.815 653.512 62.8358 658.833 66.2458C664.155 69.6558 669.196 73.5696 668.415 79.2896C667.632 85.0096 670.181 92.064 675.038 89.3187C682.437 85.1403 697.191 107.175 686.396 115.77C663.09 134.32 631.276 90.0712 631.276 90.0712C631.276 90.0712 624.018 86.2595 625.892 76.3913C627.196 69.5092 637.725 58.6814 637.707 48.0018Z" fill="black"/>
<path d="M655.608 54.7383C655.608 54.7383 654.787 62.2231 660.097 64.2525C664.301 65.861 668.084 66.5019 670.023 72.3383C671.923 78.0519 668.293 81.65 672.607 85.1206C676.919 88.5912 678.957 84.6598 685.273 88.5768C693.614 93.7468 688.874 104.021 684.406 104.355C679.937 104.688 660.549 89.8968 660.549 89.8968L648.715 59.1797L655.608 54.7383Z" fill="black"/>
<path d="M648.469 72.4531L648.23 81.9402C648.23 81.9402 646.45 84.6249 640.89 84.9357C636.746 85.1685 635.49 83.0131 635.49 83.0131L636.7 74.736L646.777 72.7831L648.469 72.4531Z" fill="#F98875"/>
<path d="M648.469 71.876C648.438 72.1342 648.331 72.4371 648.169 72.7847C645.927 77.47 638.408 79.254 636.015 79.4086L636.7 74.7376L648.469 71.876Z" fill="black"/>
<path d="M635.129 53.0597C635.129 53.0597 629.851 64.8297 631.647 71.4871C633.446 78.1461 639.505 77.1593 643.137 75.9094C646.768 74.6611 648.471 72.4564 648.471 72.4564C648.471 72.4564 651.841 73.6361 654.134 70.513C656.424 67.3916 655.068 63.7664 653.145 62.9198C651.221 62.0749 648.911 63.4459 648.911 63.4459L650.744 60.028C650.744 60.028 643.341 42.4997 635.129 53.0597Z" fill="#F98875"/>
<path d="M648.91 63.4458C648.91 63.4458 643.828 64.4725 640.298 58.8162C636.766 53.16 637.091 50.8372 637.091 50.8372L633.572 56.6752C633.572 56.6752 632.787 52.6275 634.406 50.0465C636.024 47.4655 637.706 48.0012 637.706 48.0012L648.914 50.8006L651.864 59.7839L648.91 63.4458Z" fill="black"/>
<path d="M635.532 68.0889C635.368 68.0889 635.215 67.9821 635.165 67.8179C634.389 65.2847 636.179 62.7164 636.256 62.6096C636.377 62.4359 636.616 62.396 636.79 62.5172C636.962 62.6399 637.004 62.879 636.881 63.0512C636.865 63.0751 635.232 65.4234 635.897 67.5931C635.959 67.7956 635.846 68.0092 635.644 68.0714C635.607 68.0825 635.569 68.0889 635.532 68.0889Z" fill="black"/>
<path d="M649.399 68.9987C649.303 68.9987 649.209 68.9636 649.136 68.8934C648.981 68.7483 648.975 68.5044 649.122 68.3514L652.343 64.9589C652.489 64.8059 652.732 64.7995 652.882 64.9446C653.037 65.0897 653.043 65.3336 652.897 65.4866L649.676 68.8791C649.601 68.9572 649.499 68.9987 649.399 68.9987Z" fill="black"/>
<path d="M652.801 68.0947C652.743 68.0899 650.523 67.7472 650.523 67.7472C650.312 67.7153 650.169 67.5192 650.202 67.3104C650.234 67.1031 650.424 66.9564 650.637 66.9915L652.858 67.3327C653.069 67.3645 653.212 67.5606 653.178 67.7695C653.148 67.9592 652.987 68.0947 652.801 68.0947Z" fill="black"/>
<path d="M633.256 63.2601C633.217 63.2601 633.181 63.2553 633.144 63.2441C632.942 63.1803 632.827 62.9667 632.889 62.7659L633.546 60.6312C633.606 60.4272 633.82 60.3124 634.022 60.3777C634.225 60.4399 634.34 60.6535 634.278 60.8544L633.621 62.989C633.571 63.1548 633.418 63.2601 633.256 63.2601Z" fill="black"/>
<path d="M645.924 81.8384C645.924 81.8384 658.292 66.0989 663.073 55.4209L684.51 74.3218C675.771 91.0784 670 99.7015 670 99.7015C670 99.7015 669.67 135.6 669.174 136.26C668.68 136.92 655.217 139.914 640.101 139.077C624.981 138.238 621.686 136.096 620.862 135.6C620.036 135.106 627.125 88.067 627.125 88.067C627.125 88.067 634.052 81.9978 645.924 81.8384Z" fill="#FADC7A"/>
<path d="M639.225 63.8359C639.189 63.8359 639.151 63.8295 639.114 63.8183C638.911 63.7562 638.797 63.5425 638.86 63.3401L639.516 61.207C639.576 61.003 639.791 60.8866 639.992 60.9535C640.195 61.0157 640.31 61.2293 640.247 61.4302L639.592 63.5649C639.541 63.7291 639.39 63.8359 639.225 63.8359Z" fill="black"/>
<path d="M638.762 70.6066C639.486 70.7899 640.467 70.9175 640.843 70.4998C641.246 70.0518 641.114 69.3392 640.964 68.8801L638.762 70.6066ZM639.928 71.544C638.973 71.544 637.983 71.1789 637.815 71.1135C637.686 71.0641 637.595 70.9493 637.575 70.8138C637.554 70.6767 637.608 70.5396 637.717 70.4551L640.891 67.9618C640.98 67.8932 641.096 67.8646 641.208 67.8901C641.321 67.914 641.415 67.9873 641.466 68.0878C641.506 68.1611 642.396 69.9195 641.412 71.0131C641.052 71.4132 640.495 71.544 639.928 71.544Z" fill="black"/>
<path d="M633.256 58.4087C633.072 58.4087 632.911 58.2764 632.879 58.0914C632.841 57.8826 632.981 57.6849 633.19 57.6482L635.288 57.2832C635.497 57.2465 635.693 57.3868 635.731 57.5956C635.768 57.8029 635.628 58.0006 635.419 58.0372L633.321 58.4023C633.299 58.4055 633.278 58.4087 633.256 58.4087Z" fill="black"/>
<path d="M641.981 59.786C641.92 59.786 641.863 59.7733 641.807 59.7446L638.365 58.0021C638.177 57.9065 638.1 57.6753 638.198 57.4872C638.292 57.2975 638.524 57.2241 638.711 57.3182L642.153 59.0607C642.341 59.1579 642.417 59.3875 642.32 59.5756C642.253 59.7095 642.119 59.786 641.981 59.786Z" fill="black"/>
<path d="M634.305 84.0537C634.305 84.0537 634.828 82.0338 635.354 81.1873C635.881 80.3424 638.582 81.1985 642.242 80.6198C645.904 80.0443 647.699 77.9734 648.332 77.9001C648.963 77.8283 649.4 80.1256 649.4 80.1256C649.4 80.1256 647.364 82.6891 647.046 83.0557C646.728 83.424 634.305 84.0537 634.305 84.0537Z" fill="#FADC7A"/>
<path d="M641.981 83.9804C641.794 83.9804 641.633 83.8465 641.601 83.6583C641.569 83.4479 641.711 83.2518 641.92 83.2183C643.21 83.0127 646.752 82.1709 647.64 80.7712C647.756 80.5943 647.991 80.5417 648.169 80.6533C648.349 80.7665 648.4 81.004 648.289 81.181C647.031 83.1594 642.244 83.9421 642.041 83.9756C642.02 83.9788 642 83.9804 641.981 83.9804Z" fill="black"/>
<path d="M612.272 88.1636C612.272 88.1636 618.25 86.8372 625.58 85.1824C631.695 83.8019 636.207 83 636.207 83L631.274 117.118H609.479L612.272 88.1636Z" fill="#FADC7A"/>
<path d="M623.215 117.325C622.96 117.298 622.81 117.109 622.836 116.898L624.199 105.332C624.224 105.123 624.398 104.961 624.624 104.997C624.835 105.023 624.983 105.213 624.959 105.423L623.595 116.987C623.572 117.182 623.407 117.325 623.215 117.325Z" fill="black"/>
<path d="M567.474 189.105L568.452 199.995H589.373V187.662L567.474 189.105Z" fill="#F98875"/>
<path d="M604.788 194.136L606.902 205.058L629.925 199.598L625.905 187.662L604.788 194.136Z" fill="#F98875"/>
<path d="M567.206 199.025C567.206 199.025 563.919 209.73 562.69 211.14C561.464 212.547 547.658 224.894 545.863 229.251C544.068 233.607 546.399 239.655 547.523 239.835C548.645 240.017 601.477 216.71 601.477 216.71L591.065 190.879L567.206 199.025Z" fill="#A7675F"/>
<path d="M600.67 125.504C600.67 125.504 570.415 118.142 562.121 130.924C553.825 143.708 565.426 192.491 565.426 192.491H593.283L600.67 125.504Z" fill="#0F066F"/>
<path d="M564.144 206.715C564.144 206.715 575.181 212.028 573.784 213.442C572.386 214.858 557.157 218.794 556.87 217.107C556.583 215.419 562.378 207.325 564.144 206.715Z" fill="white"/>
<path d="M669.155 136.586C669.155 136.586 675.456 165.856 662.833 170.568C650.208 175.282 621.108 169.693 621.108 169.693L632.913 190.528L594.942 201.776C594.942 201.776 563.41 144.841 582.603 129.666C601.796 114.492 642.191 136.586 642.191 136.586H669.155Z" fill="#0F066F"/>
<path d="M604.717 204.572C604.717 204.572 603.116 216.284 600.897 217.756C598.677 219.227 589.272 226.779 584.434 233.204C580.377 238.591 585.325 240.835 585.325 240.835L617.276 237.108L642.39 213.723L630.129 193.878L604.717 204.572Z" fill="#A7675F"/>
<path d="M602.536 211.804C602.536 211.804 613.553 217.159 612.15 218.569C610.748 219.977 595.501 223.856 595.222 222.166C594.943 220.478 600.766 212.406 602.536 211.804Z" fill="white"/>
<path d="M614.84 160.047C614.499 160.047 614.156 160.146 613.809 160.342C613.268 160.646 613.002 161.019 612.996 161.487C612.967 163.612 617.807 167.146 620.479 168.853C619.841 166.66 618.053 161.27 615.618 160.218C615.358 160.104 615.099 160.047 614.84 160.047ZM621.107 170.076C621.039 170.076 620.972 170.057 620.911 170.022C620.017 169.488 612.188 164.712 612.231 161.475C612.24 160.723 612.645 160.117 613.431 159.674C614.258 159.21 615.097 159.157 615.924 159.515C619.328 160.988 621.393 169.25 621.479 169.601C621.515 169.753 621.459 169.909 621.334 170.001C621.267 170.051 621.188 170.076 621.107 170.076Z" fill="#F9BF30"/>
<path d="M578.812 82.4516C578.812 82.4516 578.804 77.0616 575.945 75.6556C573.353 74.3802 567.31 72.0001 566.709 74.3244C565.862 77.5989 571.365 78.7005 571.365 78.7005C571.365 78.7005 572.854 87.6376 576.309 87.9644C579.762 88.2928 578.812 82.4516 578.812 82.4516Z" fill="#F98875"/>
<path d="M578.683 89.2237C572.672 89.2237 571.813 82.0195 571.805 81.9461C571.781 81.7373 571.933 81.5476 572.143 81.5237C572.347 81.5013 572.542 81.6528 572.566 81.8632C572.596 82.1326 573.363 88.4585 578.684 88.4585C578.711 88.4585 578.743 88.4616 578.766 88.4585C578.976 88.4585 579.147 88.6274 579.148 88.8363C579.15 89.0483 578.982 89.2221 578.77 89.2237C578.742 89.2237 578.713 89.2237 578.683 89.2237Z" fill="black"/>
<path d="M589.345 190.962C589.211 190.962 589.08 190.892 589.01 190.766C588.896 190.559 577.417 169.844 576.026 148.986C574.618 127.859 589.176 125.659 589.321 125.64C589.519 125.608 589.723 125.756 589.753 125.967C589.78 126.177 589.634 126.37 589.425 126.397C588.853 126.477 575.429 128.546 576.789 148.935C578.168 169.618 589.565 190.188 589.68 190.393C589.782 190.577 589.717 190.811 589.532 190.915C589.473 190.947 589.409 190.962 589.345 190.962Z" fill="#F9BF30"/>
<path d="M183.594 302.963H121.263L137.72 324.897L179.893 328.365L183.594 302.963Z" fill="#FF9E3E"/>
<path d="M141.595 418.943H239.976C242.115 418.943 243.85 417.209 243.85 415.07V327.119C243.85 324.981 242.115 323.245 239.976 323.245H141.595C139.454 323.245 137.721 322.757 137.721 324.898V415.07C137.721 417.209 139.454 418.943 141.595 418.943Z" fill="#FF9E3E"/>
<path d="M168.134 419.02H266.423C268.588 419.02 270.343 417.265 270.343 415.1V324.975C270.343 322.808 268.588 321.055 266.423 321.055H168.134C165.969 321.055 164.214 322.808 164.214 324.975V415.1C164.214 417.265 165.969 419.02 168.134 419.02Z" fill="#FFBA76"/>
<path d="M249.289 323.371H147.534C143.772 323.371 140.721 320.321 140.721 316.557V303.628C140.721 299.868 143.772 296.816 147.534 296.816H249.289C253.051 296.816 256.103 299.868 256.103 303.628V316.557C256.103 320.321 253.051 323.371 249.289 323.371Z" fill="#AD4D40"/>
<path d="M207.39 310.476H140.72C140.51 310.476 140.338 310.306 140.338 310.094C140.338 309.882 140.51 309.711 140.72 309.711H207.39C207.602 309.711 207.773 309.882 207.773 310.094C207.773 310.306 207.602 310.476 207.39 310.476Z" fill="#F9BF30"/>
<path d="M237.757 270.26H159.065C156.173 270.26 153.828 267.916 153.828 265.025V255.198C153.828 252.306 156.173 249.961 159.065 249.961H237.757C240.65 249.961 242.995 252.306 242.995 255.198V265.025C242.995 267.916 240.65 270.26 237.757 270.26Z" fill="#F9BF30"/>
<path d="M205.349 260.494H153.828C153.617 260.494 153.445 260.323 153.445 260.111C153.445 259.899 153.617 259.729 153.828 259.729H205.349C205.563 259.729 205.734 259.899 205.734 260.111C205.734 260.323 205.563 260.494 205.349 260.494Z" fill="#507849"/>
<path d="M147.534 296.816H249.289C253.051 296.816 256.103 293.766 256.103 290.002V277.073C256.103 273.313 253.051 270.26 249.289 270.26H147.534C143.772 270.26 140.721 273.313 140.721 277.073V290.002C140.721 293.766 143.772 296.816 147.534 296.816Z" fill="#494B78"/>
<path d="M256.1 283.921H189.432C189.222 283.921 189.05 283.749 189.05 283.538C189.05 283.326 189.222 283.154 189.432 283.154H256.1C256.312 283.154 256.485 283.326 256.485 283.538C256.485 283.749 256.312 283.921 256.1 283.921Z" fill="#FF9E3E"/>
<path d="M270.343 324.974L287.752 299.677C288.55 298.515 287.718 296.934 286.309 296.934H181.336C180.071 296.934 178.906 297.618 178.291 298.721L164.214 323.903L270.343 324.974Z" fill="#FFBA76"/>
<path d="M163.271 323.754L138.201 323.682C137.989 323.682 137.818 323.51 137.818 323.298C137.82 323.088 137.991 322.917 138.203 322.917L163.271 322.989C163.483 322.989 163.656 323.161 163.654 323.373C163.654 323.583 163.482 323.754 163.271 323.754Z" fill="white"/>
<path d="M374.884 172.578C374.884 172.578 361.86 169.083 357.146 177.902C352.43 186.723 356.497 222.513 356.497 222.513L376.494 209.365L376.074 191.622L374.884 172.578Z" fill="black"/>
<path d="M355.732 345.025L335.677 346.494L341.252 365.586L357.511 368.304L355.732 345.025Z" fill="#B26756"/>
<path d="M418.802 276.685C418.802 276.685 440.508 345.888 420.042 362.868C399.576 379.849 354.272 372.822 354.272 372.822L351.436 337.754L376.206 335.034L403.808 272.653L418.802 276.685Z" fill="#DCD8D7"/>
<path d="M371.104 397.415L371.455 418.254L392.637 410.408L394.2 393.997L371.104 397.415Z" fill="#B26756"/>
<path d="M371.663 266.053C371.663 266.053 366.948 281.568 367.759 294.049C368.571 306.53 369.895 334.823 369.631 339.815C369.364 344.808 367.665 400.004 367.665 400.004C367.665 400.004 376.736 402.776 386.574 402.776C396.413 402.776 401.909 401.668 401.909 401.668C401.909 401.668 411.514 340.092 410.592 321.786C409.671 303.478 412.03 274.641 412.03 274.641L371.663 266.053Z" fill="#E8E8E8"/>
<path d="M446.928 260.485L415.663 226.631L397.805 237.787L418.561 262.338L446.928 260.485Z" fill="#B26756"/>
<path d="M418.436 227.652C418.436 227.652 410.687 220.038 407.039 214.908C403.39 209.776 400.881 206.757 400.881 206.757L409.659 234.877C409.659 234.877 415.847 228.379 418.436 227.652Z" fill="#F16392"/>
<path d="M398.684 409.425C398.684 409.425 397.331 402.623 393.813 402.299C390.294 401.976 385.252 409.425 385.252 409.425C385.252 409.425 371.505 408.455 370.534 409.425C369.562 410.398 369.562 431.778 370.534 432.101C371.505 432.425 428.518 432.425 431.109 432.101C433.701 431.778 429.993 420.763 424.882 418.82C419.773 416.875 414.268 416.869 414.268 416.869L398.684 409.425Z" fill="#4E4E4E"/>
<path d="M347.45 371.44C347.45 371.44 354.063 369.795 354.216 366.326C354.369 362.858 346.824 358.261 346.824 358.261C346.824 358.261 347.135 344.726 346.135 343.817C345.135 342.91 324.157 343.908 323.885 344.877C323.612 345.847 326.276 401.789 326.714 404.316C327.154 406.844 337.788 402.693 339.455 397.587C341.124 392.48 340.874 387.079 340.874 387.079L347.45 371.44Z" fill="#4E4E4E"/>
<path d="M414.064 263.448C414.064 263.448 413.309 216.848 398.954 205.877C384.6 194.904 369.369 205.877 369.369 205.877L374.487 266.48C374.487 266.48 396.311 271.421 414.064 263.448Z" fill="#0F066F"/>
<path d="M378.316 192.956L378.556 202.438C378.556 202.438 380.333 205.12 385.89 205.432C390.032 205.665 391.287 203.508 391.287 203.508L390.078 195.237L380.006 193.284L378.316 192.956Z" fill="#B26756"/>
<path d="M380.006 193.283C380.038 193.541 380.143 193.846 380.304 194.193C382.545 198.876 388.372 199.751 390.764 199.906L390.078 195.236L380.006 193.283Z" fill="black"/>
<path d="M391.649 173.571C391.649 173.571 396.923 185.335 395.127 191.989C393.331 198.643 387.276 197.655 383.644 196.407C380.014 195.16 378.313 192.957 378.313 192.957C378.313 192.957 374.947 194.135 372.656 191.013C370.365 187.894 371.723 184.271 373.644 183.427C375.565 182.58 377.873 183.953 377.873 183.953L376.042 180.536C376.042 180.536 383.442 163.018 391.649 173.571Z" fill="#B26756"/>
<path d="M396.617 265.758C396.617 265.758 387.546 258.597 383.477 253.789C379.409 248.982 380.005 239.838 380.005 239.838L354.271 248.192C354.271 248.192 354.271 259.008 364.627 267.566C373.187 274.639 395.501 277.407 395.501 277.407L396.617 265.758Z" fill="#B26756"/>
<path d="M369.369 205.876C369.369 205.876 356.424 211.905 352.912 225.269C349.398 238.632 351.803 250.282 351.803 250.282L383.041 248.456L380.462 223.224C379.776 219.43 372.736 215.778 371.308 212.197L369.369 205.876Z" fill="#0F066F"/>
<path d="M384.608 179.879C384.546 179.879 384.48 179.863 384.421 179.829C384.236 179.726 384.171 179.493 384.275 179.308C384.686 178.579 385.234 178.124 385.907 177.951C387.012 177.669 388.04 178.3 388.083 178.326C388.262 178.439 388.316 178.674 388.206 178.854C388.094 179.034 387.857 179.086 387.677 178.976C387.67 178.972 386.883 178.492 386.089 178.696C385.63 178.814 385.244 179.145 384.943 179.684C384.871 179.809 384.742 179.879 384.608 179.879Z" fill="black"/>
<path d="M393.322 178.76C393.177 178.76 393.04 178.676 392.975 178.535C392.898 178.369 392.804 178.325 392.729 178.304C392.372 178.207 391.749 178.523 391.502 178.693C391.327 178.809 391.089 178.77 390.969 178.593C390.85 178.419 390.895 178.181 391.068 178.06C391.177 177.99 392.144 177.356 392.935 177.566C393.263 177.658 393.52 177.883 393.672 178.218C393.759 178.411 393.675 178.637 393.482 178.725C393.431 178.749 393.377 178.76 393.322 178.76Z" fill="black"/>
<path d="M384.996 182.379C384.925 182.379 384.854 182.362 384.791 182.32C384.612 182.207 384.558 181.971 384.673 181.791C384.948 181.356 385.333 181.089 385.784 181.021C386.748 180.879 387.7 181.67 387.74 181.705C387.901 181.842 387.92 182.083 387.783 182.244C387.647 182.405 387.408 182.427 387.246 182.29C387.045 182.119 386.409 181.705 385.899 181.778C385.667 181.813 385.478 181.952 385.318 182.202C385.247 182.317 385.122 182.379 384.996 182.379Z" fill="black"/>
<path d="M391.745 182.072C391.688 182.072 391.63 182.059 391.574 182.032C391.386 181.938 391.308 181.71 391.402 181.52C391.699 180.922 392.615 179.947 393.967 180.518C394.163 180.6 394.254 180.825 394.171 181.021C394.09 181.216 393.865 181.307 393.671 181.225C392.665 180.797 392.145 181.751 392.088 181.861C392.021 181.995 391.885 182.072 391.745 182.072Z" fill="black"/>
<path d="M391.287 187.841C391.04 187.822 390.886 187.633 390.905 187.425C391.101 185.244 389.821 182.573 389.808 182.545C389.716 182.355 389.795 182.126 389.985 182.035C390.173 181.941 390.404 182.02 390.497 182.212C390.553 182.328 391.885 185.1 391.667 187.492C391.649 187.691 391.482 187.841 391.287 187.841Z" fill="black"/>
<path d="M388.396 191.267C388.367 191.267 388.34 191.264 388.312 191.258C388.208 191.234 385.782 190.663 385.029 188.774C384.951 188.578 385.047 188.356 385.243 188.278C385.439 188.198 385.662 188.294 385.742 188.49C386.346 190.011 388.46 190.505 388.481 190.51C388.686 190.556 388.817 190.762 388.771 190.968C388.729 191.146 388.572 191.267 388.396 191.267Z" fill="black"/>
<path d="M377.513 189.016C377.431 189.016 377.344 188.987 377.273 188.929L373.453 185.819C373.289 185.685 373.263 185.443 373.399 185.28C373.531 185.114 373.77 185.092 373.936 185.224L377.756 188.335C377.92 188.469 377.945 188.709 377.812 188.874C377.737 188.966 377.625 189.016 377.513 189.016Z" fill="black"/>
<path d="M373.695 189.015C373.554 189.015 373.418 188.937 373.353 188.802C373.259 188.612 373.335 188.382 373.525 188.288L375.903 187.113C376.093 187.021 376.323 187.097 376.417 187.289C376.511 187.478 376.433 187.706 376.243 187.802L373.864 188.975C373.81 189.002 373.751 189.015 373.695 189.015Z" fill="black"/>
<path d="M377.874 183.953C377.874 183.953 382.021 183.502 384.61 180.066C387.197 176.632 388.396 173.133 388.396 173.133C388.396 173.133 390.153 173.41 391.286 174.797C392.121 175.816 393.104 177.3 393.104 177.3C393.104 177.3 393.158 172.516 390.731 170.19C388.303 167.862 386.245 168.695 386.245 168.695C386.245 168.695 380.935 165.736 375.606 170.544C370.275 175.35 372.87 183.953 372.87 183.953C372.87 183.953 375.582 182.845 377.874 183.953Z" fill="black"/>
<path d="M386.247 205.82C386.127 205.82 386.006 205.819 385.882 205.816C380.493 205.69 378.333 202.785 378.244 202.662C378.12 202.492 378.158 202.252 378.329 202.128C378.501 202.009 378.738 202.04 378.864 202.213C378.883 202.24 380.913 204.932 385.899 205.049C390.773 205.189 391.758 202.863 391.796 202.767C391.873 202.573 392.091 202.476 392.291 202.551C392.487 202.627 392.585 202.844 392.511 203.04C392.467 203.156 391.399 205.82 386.247 205.82Z" fill="white"/>
<path d="M383.477 248.412H378.315C378.105 248.412 377.933 248.241 377.933 248.029C377.933 247.817 378.105 247.647 378.315 247.647H383.063L382.27 237.605C382.254 237.394 382.412 237.211 382.623 237.193C382.83 237.152 383.018 237.334 383.034 237.546L383.858 248.001C383.868 248.106 383.831 248.211 383.758 248.289C383.686 248.367 383.584 248.412 383.477 248.412Z" fill="white"/>
<path d="M377.594 286.1C376.376 286.1 375.036 285.89 373.571 285.392C373.371 285.324 373.264 285.105 373.332 284.906C373.401 284.703 373.621 284.6 373.818 284.667C382.563 287.642 386.505 279.627 386.545 279.548C386.636 279.358 386.865 279.275 387.055 279.366C387.246 279.459 387.326 279.686 387.235 279.878C387.2 279.951 384.173 286.1 377.594 286.1Z" fill="#F9BF30"/>
<path d="M440.829 386.207L476.573 379.118L452.153 256.014L416.409 263.105L440.829 386.207Z" fill="#0F066F"/>
<path d="M432.255 386.48L395.847 384.987L400.99 259.59L437.398 261.084L432.255 386.48Z" fill="#0F066F"/>
<path d="M395.595 391.586L431.967 393.078C433.948 393.158 435.619 391.618 435.7 389.638L435.911 384.498C435.994 382.517 434.452 380.846 432.472 380.765L396.1 379.273C394.12 379.191 392.448 380.731 392.367 382.713L392.156 387.853C392.075 389.833 393.615 391.505 395.595 391.586Z" fill="#4F3B0A"/>
<path d="M478.276 385.174L442.569 392.257C440.624 392.641 438.735 391.378 438.349 389.434L437.348 384.388C436.964 382.443 438.227 380.554 440.171 380.168L475.878 373.085C477.822 372.699 479.711 373.962 480.097 375.908L481.098 380.954C481.484 382.899 480.219 384.786 478.276 385.174Z" fill="#4F3B0A"/>
<path d="M433.822 348.646C433.615 348.646 433.444 348.48 433.441 348.272L431.902 279.668C431.899 279.479 432.032 279.317 432.215 279.282L437.563 278.277C437.763 278.238 437.972 278.373 438.01 278.584C438.05 278.791 437.913 278.992 437.704 279.03L432.677 279.974L434.206 348.253C434.209 348.465 434.042 348.641 433.831 348.646C433.828 348.646 433.825 348.646 433.822 348.646Z" fill="white"/>
<path d="M451.245 256.318C451.245 256.318 452.846 242.775 449.114 244.772C445.382 246.772 444.83 254.629 444.83 254.629L451.245 256.318Z" fill="#B26756"/>
<path d="M453.629 258.935C453.629 258.935 460.454 255.077 456.851 252.712C453.248 250.344 439.603 254.258 439.858 258.717C440.115 263.176 453.629 258.935 453.629 258.935Z" fill="#B26756"/>
<path d="M455.357 265.187C455.357 265.187 462.183 261.329 458.58 258.963C454.977 256.595 441.332 260.508 441.588 264.968C441.844 269.427 455.357 265.187 455.357 265.187Z" fill="#B26756"/>
<path d="M453.257 271.901C455.031 271.761 456.767 271.228 458.22 270.2C459.506 269.291 460.444 268.058 459.05 266.752C456.265 264.147 443.778 265.5 443.328 269.429C442.995 272.343 449.751 272.18 453.257 271.901Z" fill="#B26756"/>
<path d="M445.121 261.072C444.951 261.072 444.794 260.957 444.751 260.783C444.699 260.578 444.823 260.369 445.027 260.318L454.61 257.875C454.823 257.823 455.024 257.947 455.075 258.151C455.13 258.357 455.004 258.566 454.8 258.617L445.217 261.059C445.183 261.067 445.153 261.072 445.121 261.072Z" fill="black"/>
<path d="M445.14 267.38C444.957 267.38 444.792 267.247 444.762 267.059C444.727 266.85 444.869 266.654 445.078 266.617L454.418 265.066C454.626 265.038 454.825 265.173 454.86 265.382C454.893 265.591 454.751 265.787 454.544 265.822L445.202 267.375C445.181 267.378 445.161 267.38 445.14 267.38Z" fill="black"/>
<path d="M392.314 263.599C392.314 263.599 397.601 261.791 400.279 261.188C402.959 260.586 411.736 266.409 411.736 266.409C411.736 266.409 418.021 270.628 416.012 272.234C414.003 273.841 411.076 272.305 410.072 272.706C409.069 273.108 410.389 281.672 408.581 282.476C405.68 283.765 396.332 282.275 392.314 279.263C388.298 276.25 385.355 269.623 385.355 269.623L392.314 263.599Z" fill="#B26756"/>
<path d="M410.074 273.089C410.002 273.083 406.447 272.419 406.447 272.419C406.24 272.381 406.103 272.18 406.141 271.973C406.179 271.766 406.385 271.624 406.588 271.665L410.143 272.329C410.351 272.368 410.489 272.569 410.449 272.777C410.415 272.96 410.254 273.089 410.074 273.089Z" fill="black"/>
<path d="M873.665 375.523L875.356 390.483L895.091 388.881V378.481L873.665 375.523Z" fill="#F77E6D"/>
<path d="M865.649 263.783C865.649 263.783 847.706 303.571 846.171 321.837C844.634 340.102 869.229 384.604 869.229 384.604H901.227C901.227 384.604 883.617 331.468 883.537 314.531C883.459 297.593 891.129 261.898 891.129 261.898L865.649 263.783Z" fill="#0F066F"/>
<path d="M889.89 282.58L885.962 280.21L861.736 272.862L865.648 263.783L893.278 267.388L889.89 282.58Z" fill="#FFA63B"/>
<path d="M908.112 372.906L910.1 390.484L929.837 388.882L927.388 378.143L908.112 372.906Z" fill="#F77E6D"/>
<path d="M922.613 263.783C922.613 263.783 920.8 300.582 922.613 315.195C924.424 329.807 938.984 381.673 938.072 383.001C937.162 384.33 901.227 384.605 901.227 384.605C901.227 384.605 884.172 342.428 881.322 318.517C878.473 294.606 888.089 263.783 888.089 263.783H922.613Z" fill="#0F066F"/>
<path d="M848.111 244.88L901.233 249.687L902.515 253.615C904.935 253.183 907.228 253.31 908.975 254.481C913.367 257.414 909.359 266.791 909.359 266.791C909.359 266.791 908.734 267.543 907.405 268.588L909.52 272.721C909.52 272.721 924.888 269.876 934.763 257.325C944.651 244.773 948.752 219.505 937.803 204.278C926.855 189.05 911.669 187.287 911.669 187.287C911.669 187.287 887.64 182.909 870.008 198.939C852.376 214.968 848.111 244.88 848.111 244.88Z" fill="#FADC7A"/>
<path d="M845.364 230.018C845.364 230.018 852.175 218.785 853.823 222.514C855.475 226.245 851.236 232.537 851.236 232.537L845.364 230.018Z" fill="#F77E6D"/>
<path d="M849.486 270.94H891.483C892.309 270.94 892.977 270.27 892.977 269.446V227.448C892.977 226.623 892.309 225.953 891.483 225.953H849.486C848.66 225.953 847.99 226.623 847.99 227.448V269.446C847.99 270.27 848.66 270.94 849.486 270.94Z" fill="#FF9E3E"/>
<path d="M862.107 271.111H904.105C904.931 271.111 905.6 270.443 905.6 269.617V227.618C905.6 226.794 904.931 226.124 904.105 226.124H862.107C861.281 226.124 860.613 226.794 860.613 227.618V269.617C860.613 270.443 861.281 271.111 862.107 271.111Z" fill="#FCB465"/>
<path d="M902.515 253.616L907.404 268.588C911.452 268.588 915.719 264.037 915.719 264.037C915.719 264.037 915.423 253.963 911.031 251.03C909.284 249.86 904.751 250.783 902.515 253.616Z" fill="#FADC7A"/>
<path d="M891.085 274.404C899.501 273.795 904.791 270.637 907.404 268.587L902.514 253.614C898.828 254.255 894.836 256.211 892.015 257.797C887.318 260.426 889.083 261.308 891.135 261.901C893.185 262.48 899.997 260.826 896.325 263.857C894.243 265.572 883.167 264.434 881.42 266.79C879.656 269.131 886.405 270.301 886.405 270.301C886.405 270.301 880.827 269.725 879.368 270.589C877.893 271.471 884.257 274.916 891.085 274.404Z" fill="#F77E6D"/>
<path d="M843.146 235.922C843.146 235.922 836.46 232.415 839.857 230.028C843.253 227.642 856.507 230.997 856.397 235.297C856.284 239.597 843.146 235.922 843.146 235.922Z" fill="#F77E6D"/>
<path d="M841.67 241.993C841.67 241.993 834.984 238.484 838.382 236.098C841.779 233.711 855.031 237.065 854.921 241.367C854.81 245.668 841.67 241.993 841.67 241.993Z" fill="#F77E6D"/>
<path d="M843.896 248.394C842.184 248.313 840.496 247.854 839.067 246.907C837.802 246.072 836.863 244.91 838.163 243.613C840.765 241.02 852.827 241.948 853.38 245.713C853.79 248.509 847.281 248.555 843.896 248.394Z" fill="#F77E6D"/>
<path d="M904.751 251.652C904.654 251.652 904.556 251.614 904.482 251.541C904.332 251.394 904.33 251.15 904.478 250.999C910.828 244.564 918 232.075 918.074 231.951C918.179 231.768 918.416 231.707 918.595 231.809C918.778 231.914 918.844 232.147 918.737 232.33C918.665 232.458 911.443 245.03 905.024 251.537C904.949 251.612 904.848 251.652 904.751 251.652Z" fill="white"/>
<path d="M916.517 226.141C916.491 226.141 916.462 226.143 916.434 226.148C916.233 226.178 916.059 226.295 915.904 226.508C914.924 227.846 915.15 232.037 915.458 234.771C916.478 231.426 917.465 227.116 916.733 226.239C916.69 226.188 916.633 226.141 916.517 226.141ZM915.305 236.885C915.098 236.867 914.954 236.735 914.926 236.563C914.873 236.226 913.633 228.316 915.286 226.055C915.565 225.676 915.912 225.451 916.319 225.391C916.847 225.309 917.148 225.542 917.32 225.749C918.705 227.404 916.187 235.099 915.667 236.625C915.614 236.781 915.468 236.885 915.305 236.885Z" fill="white"/>
<path d="M851.049 237.767C851.024 237.767 850.995 237.764 850.966 237.757L841.594 235.683C841.388 235.639 841.259 235.433 841.304 235.227C841.348 235.022 841.549 234.888 841.76 234.935L851.132 237.01C851.339 237.054 851.468 237.26 851.422 237.465C851.384 237.644 851.224 237.767 851.049 237.767Z" fill="black"/>
<path d="M850.472 243.542C850.422 243.539 841.621 242.372 841.621 242.372C841.41 242.345 841.262 242.152 841.291 241.943C841.319 241.734 841.499 241.593 841.721 241.613L850.521 242.779C850.731 242.807 850.88 243 850.851 243.209C850.824 243.402 850.661 243.542 850.472 243.542Z" fill="black"/>
<path d="M888.704 271.499C887.194 271.499 885.533 271.265 884.184 270.489C884.003 270.383 883.939 270.149 884.044 269.966C884.151 269.782 884.385 269.725 884.568 269.825C887.593 271.569 892.653 270.248 892.7 270.232C892.914 270.186 893.117 270.299 893.169 270.503C893.225 270.707 893.104 270.917 892.9 270.973C892.769 271.007 890.896 271.499 888.704 271.499Z" fill="black"/>
<path d="M897.097 262.284C896.9 262.284 896.732 262.133 896.716 261.933C896.697 261.723 896.854 261.538 897.064 261.519L900.533 261.219C900.729 261.186 900.928 261.358 900.947 261.567C900.967 261.777 900.81 261.962 900.598 261.981L897.129 262.282C897.12 262.284 897.109 262.284 897.097 262.284Z" fill="black"/>
<path d="M900.664 383.577C900.511 383.577 900.366 383.483 900.307 383.329C900.112 382.822 880.947 332.284 880.681 315.883C880.434 300.621 883.29 282.503 883.734 279.796L869.131 275.859C868.927 275.805 868.805 275.594 868.861 275.39C868.914 275.186 869.126 275.063 869.33 275.121L884.268 279.149C884.457 279.2 884.578 279.387 884.545 279.581C884.511 279.779 881.181 299.488 881.446 315.87C881.71 332.139 900.83 382.551 901.023 383.058C901.098 383.254 900.997 383.477 900.799 383.552C900.756 383.569 900.71 383.577 900.664 383.577Z" fill="#507849"/>
<path d="M867.115 322.711C867.136 322.719 867.181 322.813 867.351 322.982C869.446 325.056 876.267 324.543 879.791 324.12C873.808 322.907 867.753 322.083 867.115 322.711ZM874.134 325.266C871.163 325.266 868.179 324.879 866.812 323.527C866.374 323.092 866.248 322.697 866.436 322.349C867.299 320.764 877.664 322.851 882.083 323.821C882.262 323.86 882.386 324.02 882.383 324.203C882.378 324.386 882.246 324.54 882.066 324.571C881.787 324.619 877.972 325.266 874.134 325.266Z" fill="#507849"/>
<path d="M896.686 411.887C896.42 415.236 896.08 417.67 895.741 418.083C894.488 419.619 845.178 420.872 842.742 420.562C840.323 420.251 841.104 420.711 840.323 420.251C839.717 419.899 840.027 416.327 840.204 414.6C840.279 414.04 840.323 413.671 840.323 413.671C840.323 413.671 840.323 407.563 844.706 404.582C849.087 401.617 856.597 400.364 856.597 400.364C856.597 400.364 869.507 391.436 870.57 390.964C871.632 390.491 872.724 385.799 873.197 385.638C873.669 385.49 895.447 386.108 896.775 387.054C897.734 387.747 897.408 403.004 896.686 411.887Z" fill="#DC7610"/>
<path d="M874.076 394.321C874.017 394.321 873.958 394.306 873.902 394.278L869.343 391.941C869.155 391.843 869.08 391.614 869.175 391.424C869.274 391.234 869.501 391.164 869.69 391.258L874.251 393.597C874.439 393.693 874.514 393.924 874.417 394.112C874.349 394.244 874.215 394.321 874.076 394.321Z" fill="white"/>
<path d="M870.298 398.995C870.256 398.995 870.213 398.988 870.168 398.974L862.829 396.358C862.631 396.286 862.526 396.068 862.596 395.868C862.668 395.669 862.88 395.567 863.087 395.636L870.427 398.252C870.624 398.323 870.73 398.542 870.66 398.741C870.604 398.897 870.455 398.995 870.298 398.995Z" fill="white"/>
<path d="M903.696 193.032C903.366 193.032 903.031 193.024 902.687 193.007C902.475 192.997 902.312 192.816 902.322 192.607C902.333 192.395 902.531 192.234 902.723 192.242C909.3 192.578 912.791 189.431 912.826 189.401C912.981 189.259 913.223 189.267 913.366 189.423C913.51 189.579 913.499 189.82 913.342 189.963C913.201 190.094 909.932 193.032 903.696 193.032Z" fill="white"/>
<path d="M718.812 301.062C718.826 301.826 718.262 302.465 717.567 302.465H663.688C662.991 302.465 662.428 301.826 662.443 301.062L663.991 240.306H674.761C674.761 243.464 681.854 246.029 690.598 246.029C699.356 246.029 706.449 243.464 706.449 240.306H717.262L718.812 301.062Z" fill="#4BCA92"/>
<path d="M663.997 240.312L643.865 263.848C643.293 264.519 643.473 265.609 644.226 266.013L668.445 279.017L663.997 240.312Z" fill="#4BCA92"/>
<path d="M717.205 240.312L737.336 263.848C737.909 264.519 737.728 265.609 736.976 266.013L712.757 279.017L717.205 240.312Z" fill="#4BCA92"/>
<path d="M684.157 206.26C684.157 206.26 702.773 212.621 705.885 207.574C708.995 202.527 709.279 198.31 709.279 198.31C709.279 198.31 704.957 184.983 699.855 187.527C691.88 191.503 684.157 206.26 684.157 206.26Z" fill="#B26756"/>
<path d="M698.498 192.153C698.498 192.153 695.692 201.32 702.22 204.583C708.749 207.847 708.466 196.47 708.466 196.47L706.247 191.67L700 190.119L698.498 192.153Z" fill="#B26756"/>
<path d="M700.304 203.146C700.205 203.146 700.108 203.107 700.033 203.034C696.945 199.959 697.423 195.025 697.446 194.816C697.468 194.607 697.661 194.451 697.865 194.476C698.075 194.499 698.23 194.685 698.208 194.896C698.201 194.943 697.749 199.678 700.573 202.492C700.723 202.64 700.723 202.883 700.573 203.034C700.5 203.107 700.401 203.146 700.304 203.146Z" fill="black"/>
<path d="M741.497 384.834V397.752L718.02 396.842V384.834H741.497Z" fill="#F9BF30"/>
<path d="M795.708 383.378V396.297L773.975 395.385V383.378H795.708Z" fill="#F9BF30"/>
<path d="M743.876 244.087C743.876 244.087 731.562 268.765 721.52 313.264C712.362 353.854 710.39 387.425 710.39 387.425H750.002C750.002 387.425 754.41 354.331 755.584 341.236C756.759 328.141 760.663 310.613 760.663 310.613C760.663 310.613 766.101 386.145 767.397 387.425C768.693 388.702 806.614 387.705 806.208 385.971C805.801 384.238 794.224 258.97 793.196 250.712C790.039 225.325 743.876 244.087 743.876 244.087Z" fill="#FADC7A"/>
<path d="M768.579 415.413C768.579 417.693 769.32 420.301 770.833 420.958C772.348 421.615 784.602 422.983 795.327 422.017C805.592 421.086 807.722 420.301 808.48 419.334C808.849 418.843 808.126 416.563 807.301 414.355C807.248 414.246 807.211 414.119 807.159 414.009C806.736 412.896 806.296 411.82 805.979 411.055C805.662 410.325 805.274 409.631 804.817 408.955C803.707 407.369 801.507 404.087 800.943 402.39C800.205 400.128 799.078 395.24 798.32 392.943C797.562 390.681 795.714 390.208 795.714 390.208C795.714 390.208 774.602 388.711 773.087 390.024C771.591 391.32 770.833 402.081 770.833 403.704V405.327C770.833 406.84 769.831 409.832 769.179 412.313C769.002 412.933 768.86 413.516 768.756 414.046C768.651 414.575 768.579 415.031 768.579 415.413Z" fill="#A7675F"/>
<path d="M680.24 420.064C681.648 420.667 741.568 422.363 742.959 420.064C743.382 419.372 743.683 417.019 743.876 414.065C744.369 407.095 744.369 396.736 744.369 396.736C744.369 396.736 744.81 393.199 744.721 391.557C744.651 389.934 715.826 390.554 715.826 390.554L697.091 405.857C697.091 405.857 691.948 404.908 686.332 405.857C683.357 406.349 681.438 410.124 680.486 413.681C679.641 416.836 679.571 419.774 680.24 420.064Z" fill="#A7675F"/>
<path d="M760.662 310.995C760.463 310.995 760.296 310.844 760.281 310.643C760.269 310.479 759.031 294.207 758.673 286.988C758.367 280.842 758.311 277.421 758.3 276.516L745.688 270.698C745.497 270.609 745.412 270.383 745.501 270.191C745.589 269.997 745.822 269.912 746.008 270.003L758.842 275.923C758.977 275.985 759.065 276.12 759.065 276.269C759.065 276.304 759.081 279.75 759.438 286.95C759.797 294.159 761.031 310.42 761.043 310.582C761.061 310.794 760.901 310.978 760.691 310.993C760.681 310.995 760.672 310.995 760.662 310.995Z" fill="white"/>
<path d="M795.169 401.431C795.135 401.431 795.1 401.426 795.067 401.417C794.982 401.393 786.74 399.122 782.602 399.861L778.324 400.621C778.16 400.656 777.986 400.565 777.913 400.411C777.838 400.256 777.876 400.071 778.004 399.958C778.316 399.679 785.737 393.203 790.184 395.164C790.377 395.25 790.464 395.477 790.378 395.669C790.294 395.862 790.072 395.947 789.873 395.866C786.828 394.51 781.867 397.895 779.646 399.609L782.468 399.108C786.786 398.34 794.928 400.583 795.272 400.678C795.476 400.734 795.594 400.946 795.539 401.15C795.492 401.319 795.338 401.431 795.169 401.431Z" fill="white"/>
<path d="M701.581 402.571C701.389 402.571 701.223 402.424 701.2 402.228C701.178 402.017 701.331 401.829 701.542 401.805L711.515 400.742L708.239 396.75C708.105 396.588 708.129 396.345 708.291 396.211C708.456 396.076 708.695 396.101 708.83 396.266L712.556 400.804C712.645 400.914 712.668 401.062 712.615 401.192C712.561 401.322 712.441 401.413 712.301 401.429L701.623 402.569C701.609 402.569 701.594 402.571 701.581 402.571Z" fill="white"/>
<path d="M757.686 184.869C757.686 184.869 756.213 185.209 755.852 185.752C755.494 186.293 755.55 188.47 755.55 188.47L744.288 216.63L740.936 246.994C740.936 246.994 747.889 254.462 766.108 255.32C784.325 256.179 793.997 247.811 793.997 247.811C793.997 247.811 786.576 196.826 782.096 190.156C780.107 187.193 771.67 186.43 771.67 186.43C771.67 186.43 771.401 185.367 771.09 185.175C769.421 184.166 757.686 184.869 757.686 184.869Z" fill="#0F066F"/>
<path d="M757.178 167.254C757.178 167.254 750.501 164.675 750.165 169.787C749.776 175.711 756.835 175.522 756.835 175.522L757.178 167.254Z" fill="#B26756"/>
<path d="M754.073 172.68C753.947 172.68 753.823 172.615 753.749 172.5L751.422 168.812C751.31 168.632 751.363 168.398 751.541 168.285C751.721 168.172 751.956 168.226 752.069 168.404L754.397 172.092C754.51 172.272 754.455 172.506 754.277 172.619C754.215 172.661 754.143 172.68 754.073 172.68Z" fill="black"/>
<path d="M751.479 171.638C751.276 171.638 751.107 171.48 751.096 171.276C751.085 171.064 751.249 170.884 751.458 170.873L753.335 170.776C753.577 170.769 753.727 170.929 753.738 171.139C753.749 171.349 753.585 171.531 753.376 171.542L751.5 171.638C751.492 171.638 751.485 171.638 751.479 171.638Z" fill="black"/>
<path d="M769.53 180.88L769.826 187.788C769.826 187.788 767.207 189.318 763.875 189.489C759.374 189.723 757.764 187.104 757.764 187.104L757.516 179.002L769.53 180.88Z" fill="#B26756"/>
<path d="M769.529 180.871C769.529 180.871 767.567 186.539 762.429 185.953C758.288 185.48 756.906 179.679 756.906 179.679L769.529 180.871Z" fill="black"/>
<path d="M754.892 161.675C754.892 161.675 752.443 174.422 756.259 179.898C760.353 185.769 766.547 183.761 768.827 181.878C771.902 179.34 772.431 175.947 772.431 175.947C772.431 175.947 776.802 176.663 778.127 173.071C779.519 169.3 776.711 166.392 774.534 166.291C772.356 166.188 772.115 166.593 772.115 166.593L772.616 162.599C772.616 162.599 758.904 148.384 754.892 161.675Z" fill="#B26756"/>
<path d="M773.014 172.293C772.91 172.293 772.808 172.251 772.732 172.168C772.588 172.015 772.6 171.771 772.754 171.628L776.006 168.637C776.159 168.495 776.4 168.503 776.547 168.659C776.69 168.816 776.679 169.058 776.524 169.201L773.272 172.192C773.199 172.259 773.107 172.293 773.014 172.293Z" fill="black"/>
<path d="M776.126 172.715C776.05 172.715 775.973 172.693 775.906 172.646L773.879 171.228C773.705 171.106 773.663 170.867 773.783 170.694C773.906 170.521 774.146 170.48 774.317 170.599L776.346 172.017C776.519 172.139 776.562 172.379 776.441 172.551C776.366 172.658 776.246 172.715 776.126 172.715Z" fill="black"/>
<path d="M766.36 169.025C766.139 169.022 765.973 168.845 765.978 168.633L766.027 166.502C766.032 166.29 766.172 166.135 766.419 166.127C766.631 166.132 766.799 166.307 766.794 166.519L766.743 168.652C766.738 168.861 766.567 169.025 766.36 169.025Z" fill="black"/>
<path d="M758.687 169.234C758.465 169.229 758.298 169.054 758.303 168.842L758.355 166.709C758.36 166.499 758.501 166.347 758.748 166.336C758.96 166.341 759.125 166.516 759.121 166.728L759.07 168.861C759.065 169.07 758.894 169.234 758.687 169.234Z" fill="black"/>
<path d="M762.155 174.376C761.981 174.376 761.824 174.256 761.784 174.079C761.006 170.749 761.98 167.99 762.021 167.873C762.093 167.674 762.316 167.57 762.511 167.644C762.71 167.715 762.814 167.935 762.742 168.133C762.732 168.16 761.805 170.803 762.528 173.906C762.576 174.111 762.449 174.319 762.243 174.365C762.214 174.373 762.184 174.376 762.155 174.376Z" fill="black"/>
<path d="M756.884 164.925C756.79 164.925 756.698 164.89 756.625 164.822C756.468 164.678 756.459 164.436 756.604 164.281C757.433 163.39 758.952 163.244 759.017 163.237C759.22 163.216 759.413 163.374 759.432 163.583C759.451 163.794 759.296 163.98 759.088 164.001C759.073 164.001 757.792 164.128 757.165 164.803C757.09 164.884 756.986 164.925 756.884 164.925Z" fill="black"/>
<path d="M767.401 165.133C767.3 165.133 767.197 165.092 767.124 165.012C766.492 164.341 765.21 164.218 765.198 164.217C764.987 164.199 764.831 164.013 764.85 163.802C764.871 163.592 765.051 163.444 765.265 163.455C765.33 163.459 766.849 163.601 767.68 164.488C767.825 164.642 767.817 164.885 767.662 165.03C767.591 165.098 767.495 165.133 767.401 165.133Z" fill="black"/>
<path d="M773.118 166.578C773.118 166.578 771.889 170.527 771.379 170.385C770.867 170.243 771.505 164.063 772.967 163.764C774.427 163.465 773.118 166.578 773.118 166.578Z" fill="black"/>
<path d="M772.481 166.025C772.481 166.025 768.108 165.594 765.205 163.28C762.754 161.327 761.835 158.574 761.835 158.574C761.835 158.574 759.957 158.304 757.248 159.917C754.54 161.529 754.254 166.626 754.254 166.626C754.254 166.626 749.422 157.912 751.829 154.889C754.237 151.867 758.064 154.464 758.064 154.464C758.064 154.464 757.462 148.804 765.249 151.105C773.037 153.405 774.724 160.181 774.724 160.181C774.724 160.181 777.397 159.986 777.691 162.463C777.985 164.941 776.943 167.439 776.943 167.439C776.943 167.439 775.797 166.32 774.002 166.956C772.208 167.59 772.208 167.59 772.208 167.59L772.481 166.025Z" fill="black"/>
<path d="M757.687 184.87C757.687 184.87 759.071 186.512 762.643 187.002C766.216 187.493 769.68 184.947 769.68 184.947L771.515 189.439L765.419 192.286L755.944 190.415L756.423 186.126L757.687 184.87Z" fill="#2A4803"/>
<path d="M764.225 177.712C764.123 177.712 764.027 177.704 763.942 177.69C763.734 177.656 763.592 177.46 763.624 177.251C763.657 177.044 763.837 176.894 764.062 176.933C764.21 176.955 765.447 177.076 765.843 175.404C765.891 175.2 766.103 175.067 766.303 175.122C766.509 175.169 766.637 175.377 766.587 175.582C766.184 177.28 764.993 177.712 764.225 177.712Z" fill="black"/>
<path d="M710.39 193.023L697.794 211.461C697.794 211.461 709.349 231.531 730.346 231.016C755.71 230.394 758.959 206.044 758.959 206.044L756.861 188.47C756.861 188.47 749.897 189.083 744.231 193.676C740.214 196.935 722.702 202.175 710.39 193.023Z" fill="#0F066F"/>
<path d="M761.783 192.224C757.303 192.224 755.241 188.699 755.217 188.66C755.111 188.477 755.175 188.243 755.36 188.139C755.539 188.037 755.776 188.098 755.881 188.281C755.976 188.444 758.228 192.263 763.357 191.307C763.559 191.269 763.765 191.407 763.805 191.613C763.843 191.82 763.706 192.021 763.497 192.061C762.891 192.173 762.32 192.224 761.783 192.224Z" fill="#AF4D04"/>
<path d="M781.335 258.302L788.243 246.977L797.945 259.91C797.945 259.91 796.151 269.624 789.249 269.624C787.071 269.624 781.335 258.302 781.335 258.302Z" fill="#B26756"/>
<path d="M790.78 271.239C790.703 271.239 790.625 271.216 790.557 271.166C783.719 266.227 780.931 257.614 780.904 257.526C780.84 257.325 780.95 257.11 781.153 257.046C781.349 256.982 781.569 257.094 781.632 257.297C781.661 257.379 784.376 265.759 791.005 270.546C791.175 270.669 791.215 270.909 791.091 271.08C791.016 271.185 790.899 271.239 790.78 271.239Z" fill="white"/>
<path d="M775.929 187.136C775.929 187.136 804.857 193.023 814.183 216.839C823.962 241.801 798.283 264.133 798.283 264.133L784.211 250.045L775.929 187.136Z" fill="#0F066F"/>
<path d="M785.08 244.583C785.029 244.583 784.977 244.572 784.927 244.551C784.733 244.465 784.645 244.239 784.731 244.046C784.789 243.917 790.488 231.011 794.459 224.84C794.572 224.663 794.813 224.614 794.988 224.726C795.165 224.84 795.218 225.078 795.103 225.255C791.166 231.377 785.489 244.224 785.431 244.353C785.367 244.497 785.227 244.583 785.08 244.583Z" fill="#AF4D04"/>
<path d="M791.825 223.547C790.748 223.792 790.667 227.202 790.946 230.294C791.807 227.174 792.351 224.079 791.874 223.566C791.864 223.558 791.855 223.547 791.825 223.547ZM790.78 232.584C790.573 232.569 790.428 232.431 790.402 232.256C790.189 230.775 789.248 223.359 791.585 222.81C791.912 222.729 792.221 222.814 792.437 223.046C793.57 224.269 791.735 230.451 791.145 232.317C791.096 232.476 790.948 232.584 790.78 232.584Z" fill="#AF4D04"/>
<path d="M730.327 199.576C729.871 201.489 729.413 204.234 730.014 205.309C730.128 205.511 730.265 205.628 730.445 205.676C730.601 205.717 730.657 205.671 730.687 205.639C731.258 205.07 730.877 202.116 730.327 199.576ZM730.56 206.458C730.464 206.458 730.362 206.446 730.249 206.417C729.866 206.315 729.562 206.069 729.346 205.684C728.261 203.74 729.801 198.492 729.981 197.901C730.03 197.735 730.202 197.614 730.354 197.628C730.526 197.631 730.673 197.748 730.717 197.915C731.02 199.077 732.471 204.941 731.228 206.181C731.09 206.318 730.872 206.458 730.56 206.458Z" fill="#AF4D04"/>
<path d="M742.949 228.15C742.71 228.135 742.552 227.951 742.566 227.742L743.116 219.98C743.131 219.769 743.316 219.6 743.524 219.626C743.736 219.64 743.894 219.823 743.88 220.034L743.33 227.794C743.316 227.997 743.148 228.15 742.949 228.15Z" fill="#AF4D04"/>
<path d="M698.729 194.604C698.729 194.604 686.218 190.053 687.83 187.315C689.443 184.578 700.957 186.104 702.336 187.349C703.716 188.592 706.248 191.669 706.248 191.669L698.729 194.604Z" fill="#B26756"/>
<path d="M690.976 219.956C690.764 219.956 690.593 219.784 690.593 219.574V210.908C690.593 210.769 690.668 210.641 690.789 210.573C690.856 210.538 697.386 206.834 696.589 202.106C695.787 197.342 689.315 195.243 689.249 195.221C689.047 195.158 688.937 194.942 689.001 194.741C689.063 194.54 689.273 194.435 689.48 194.49C689.764 194.581 696.463 196.751 697.343 201.978C698.159 206.807 692.521 210.437 691.358 211.129V219.574C691.358 219.784 691.188 219.956 690.976 219.956Z" fill="#F9BF30"/>
<path d="M691.86 191.562C691.86 191.562 684.157 188.471 681.625 190.669C680.103 191.992 681.625 193.928 681.625 193.928C681.625 193.928 677.707 193.088 677.472 195.501C677.239 197.913 679.337 198.655 679.337 198.655C679.337 198.655 676.27 200.555 677.455 202.688C678.639 204.823 688.667 208.352 691.232 206.72C693.797 205.087 690.534 202.913 690.534 202.913C690.534 202.913 693.564 202.696 694.262 200.571C694.964 198.446 692.866 198.172 692.866 198.172C692.866 198.172 698.729 194.605 691.86 191.562Z" fill="#B26756"/>
<path d="M692.227 198.039C688.578 198.039 681.766 194.435 681.444 194.266C681.259 194.165 681.187 193.934 681.288 193.746C681.385 193.56 681.616 193.488 681.806 193.59C684.153 194.84 690.751 197.923 693.096 197.163C693.788 196.939 694.25 196.565 694.508 196.013C695.081 194.795 694.432 193.147 694.426 193.132C694.346 192.936 694.442 192.713 694.638 192.633C694.83 192.557 695.057 192.648 695.135 192.845C695.168 192.925 695.916 194.811 695.202 196.335C694.854 197.081 694.223 197.604 693.33 197.891C693.011 197.993 692.64 198.039 692.227 198.039Z" fill="black"/>
<path d="M691.701 203.198C687.997 203.198 679.554 199.184 679.173 199.001C678.982 198.91 678.902 198.68 678.992 198.491C679.084 198.299 679.315 198.221 679.503 198.31C679.601 198.357 689.287 202.997 692.254 202.387C692.783 202.282 693.118 202.047 693.277 201.674C693.741 200.59 692.707 198.545 692.268 197.85C692.155 197.67 692.208 197.434 692.388 197.322C692.566 197.207 692.801 197.261 692.915 197.442C692.989 197.556 694.699 200.3 693.982 201.974C693.719 202.589 693.188 202.98 692.402 203.138C692.196 203.179 691.959 203.198 691.701 203.198Z" fill="black"/>
<path d="M689.783 208.204C689.606 208.204 689.445 208.192 689.306 208.169C689.097 208.139 688.954 207.943 688.986 207.734C689.016 207.527 689.203 207.375 689.421 207.414C689.507 207.427 691.462 207.688 692.053 205.953C692.661 204.179 691.238 203.117 691.178 203.073C691.007 202.948 690.969 202.709 691.092 202.539C691.213 202.371 691.452 202.327 691.624 202.451C692.302 202.937 693.411 204.347 692.778 206.201C692.232 207.798 690.773 208.204 689.783 208.204Z" fill="black"/>
<path d="M690.326 220.138L663.429 236.58C662.836 236.942 662.756 237.54 662.879 237.978C663.003 238.418 663.383 238.887 664.078 238.887H717.873C718.568 238.887 718.947 238.418 719.071 237.978C719.194 237.54 719.114 236.942 718.521 236.58L691.624 220.138C691.222 219.892 690.728 219.892 690.326 220.138ZM717.873 239.652H664.078C663.153 239.652 662.393 239.077 662.142 238.187C661.892 237.296 662.241 236.408 663.03 235.925L689.928 219.484C690.572 219.089 691.378 219.089 692.023 219.484L718.92 235.925C719.709 236.408 720.058 237.296 719.808 238.187C719.558 239.077 718.797 239.652 717.873 239.652Z" fill="#F9BF30"/>
<path d="M668.192 241.248C667.98 241.248 667.81 241.077 667.81 240.865V237.677C667.81 237.465 667.98 237.294 668.192 237.294C668.404 237.294 668.575 237.465 668.575 237.677V240.865C668.575 241.077 668.404 241.248 668.192 241.248Z" fill="#F9BF30"/>
<path d="M713.538 241.248C713.326 241.248 713.155 241.077 713.155 240.865V237.677C713.155 237.465 713.326 237.294 713.538 237.294C713.75 237.294 713.922 237.465 713.922 237.677V240.865C713.922 241.077 713.75 241.248 713.538 241.248Z" fill="#F9BF30"/>
<path d="M896.333 418.849C895.072 419.926 845.081 421.171 842.623 420.973C840.142 420.778 840.94 421.1 840.142 420.778C839.345 420.454 840.072 416.164 840.072 416.164C840.072 416.164 840.079 416.126 840.075 416.048C848.467 416.04 870.974 415.943 885.104 415.459C890.046 415.287 894.006 415.141 897.16 415.016C896.923 417.095 896.645 418.579 896.333 418.849Z" fill="#EBBB33"/>
<path d="M901.663 184.241V184.467L901.825 188.738L901.94 192.085C901.94 192.085 901.648 192.862 905.547 192.634C910.77 192.312 912.469 190.079 912.469 190.079L912.744 182.235L911.159 182.526L901.663 184.241Z" fill="#FF9583"/>
<path d="M901.663 184.467L901.825 188.737C904.365 188.445 908.99 187.378 910.883 183.399C911.029 183.076 911.126 182.784 911.159 182.541L901.68 184.402L901.663 184.467Z" fill="black"/>
<path d="M900.144 164.023C900.144 164.023 895.214 175.105 896.92 181.362C898.63 187.618 904.325 186.673 907.738 185.489C911.151 184.305 912.744 182.228 912.744 182.228C912.744 182.228 915.918 183.328 918.063 180.386C920.21 177.442 918.923 174.038 917.113 173.248C915.302 172.457 913.135 173.753 913.135 173.753L914.847 170.535C914.847 170.535 907.839 154.071 900.144 164.023Z" fill="#FF9583"/>
<path d="M900.839 177.534C900.678 177.534 900.528 177.429 900.478 177.27C899.767 174.968 901.386 172.633 901.454 172.534C901.575 172.362 901.81 172.326 901.978 172.442C902.147 172.562 902.19 172.797 902.07 172.967C902.056 172.987 900.596 175.103 901.197 177.046C901.258 177.245 901.148 177.455 900.95 177.517C900.911 177.528 900.874 177.534 900.839 177.534Z" fill="black"/>
<path d="M913.869 179.07C913.778 179.07 913.684 179.036 913.611 178.968C913.461 178.826 913.455 178.586 913.597 178.436L916.499 175.363C916.641 175.211 916.879 175.206 917.029 175.347C917.181 175.489 917.187 175.728 917.045 175.878L914.143 178.953C914.069 179.032 913.97 179.07 913.869 179.07Z" fill="black"/>
<path d="M916.942 178.248C916.886 178.243 914.88 177.938 914.88 177.938C914.674 177.906 914.532 177.716 914.564 177.51C914.595 177.304 914.788 177.16 914.991 177.194L916.997 177.499C917.203 177.532 917.344 177.722 917.313 177.928C917.283 178.115 917.124 178.248 916.942 178.248Z" fill="black"/>
<path d="M903.228 179.746C903.633 179.992 904.215 180.211 904.778 179.93C905.305 179.667 905.669 179.232 905.901 178.856L903.228 179.746ZM904.213 180.817C903.107 180.817 902.216 179.923 902.17 179.874C902.079 179.783 902.043 179.65 902.073 179.523C902.104 179.398 902.198 179.295 902.32 179.255L906.495 177.868C906.629 177.82 906.775 177.855 906.875 177.953C906.974 178.05 907.014 178.196 906.974 178.329C906.957 178.392 906.499 179.91 905.113 180.602C904.807 180.756 904.504 180.817 904.213 180.817Z" fill="black"/>
<path d="M905.678 173.551C905.423 173.521 905.279 173.332 905.304 173.125L905.557 171.136C905.583 170.932 905.754 170.793 905.979 170.811C906.185 170.838 906.329 171.026 906.304 171.234L906.051 173.223C906.026 173.411 905.865 173.551 905.678 173.551Z" fill="black"/>
<path d="M899.77 173.074C899.51 173.04 899.368 172.849 899.399 172.644L899.69 170.66C899.72 170.454 899.906 170.309 900.116 170.343C900.322 170.374 900.463 170.564 900.434 170.77L900.141 172.753C900.115 172.94 899.954 173.074 899.77 173.074Z" fill="black"/>
<path d="M907.532 169.735C907.395 169.735 907.264 169.661 907.197 169.531C906.727 168.617 905.457 168.869 905.402 168.881C905.201 168.917 905 168.793 904.956 168.592C904.911 168.388 905.04 168.19 905.242 168.145C905.32 168.129 907.131 167.757 907.866 169.186C907.96 169.37 907.887 169.599 907.703 169.692C907.648 169.721 907.59 169.735 907.532 169.735Z" fill="black"/>
<path d="M901.291 168.808C901.171 168.808 901.053 168.751 900.98 168.646C900.802 168.386 900.597 168.244 900.351 168.213C899.848 168.157 899.265 168.553 899.082 168.715C898.925 168.85 898.69 168.838 898.55 168.68C898.414 168.525 898.428 168.288 898.584 168.151C898.622 168.117 899.489 167.357 900.442 167.466C900.908 167.524 901.297 167.777 901.601 168.219C901.718 168.392 901.675 168.626 901.503 168.742C901.438 168.788 901.364 168.808 901.291 168.808Z" fill="black"/>
<path d="M913.134 173.755C913.134 173.755 911.158 174.033 909.917 171.707C908.635 169.304 909.47 166.011 909.47 166.011C909.47 166.011 906.398 166.825 903.515 165.571C900.632 164.318 900.389 163.719 900.389 163.719L899.04 166.817C899.04 166.817 894.006 158.906 899.04 157.046C902.439 155.792 906.613 158.991 906.613 158.991C906.613 158.991 915.612 159.993 917.932 164.632C920.251 169.27 918.284 174.228 918.284 174.228C918.284 174.228 915.419 172.975 913.134 173.755Z" fill="black"/>
<path d="M930.722 411.887C930.457 415.236 930.118 417.67 929.778 418.083C928.524 419.619 879.213 420.872 876.779 420.562C874.357 420.251 875.14 420.711 874.357 420.251C873.753 419.899 874.064 416.327 874.241 414.6C874.314 414.04 874.357 413.671 874.357 413.671C874.357 413.671 874.357 407.563 878.74 404.582C883.122 401.617 890.633 400.364 890.633 400.364C890.633 400.364 903.544 391.436 904.606 390.964C905.669 390.491 906.76 385.799 907.231 385.638C907.705 385.49 929.482 386.108 930.81 387.054C931.769 387.747 931.446 403.004 930.722 411.887Z" fill="#E8821C"/>
<path d="M929.466 419.277C928.227 420.138 879.069 421.134 876.652 420.976C874.212 420.82 874.997 421.078 874.212 420.82C873.428 420.56 874.143 417.129 874.143 417.129C874.143 417.129 874.15 417.098 874.146 417.036C882.399 417.029 904.53 416.952 918.425 416.564C923.284 416.427 927.178 416.31 930.279 416.21C930.047 417.873 929.773 419.06 929.466 419.277Z" fill="#F7C537"/>
<path d="M908.112 394.321C908.053 394.321 907.994 394.306 907.938 394.278L903.377 391.941C903.189 391.843 903.114 391.614 903.212 391.424C903.307 391.234 903.538 391.164 903.726 391.258L908.286 393.597C908.476 393.693 908.549 393.924 908.453 394.112C908.385 394.244 908.251 394.321 908.112 394.321Z" fill="white"/>
<path d="M904.335 398.995C904.294 398.995 904.249 398.988 904.206 398.974L896.863 396.358C896.666 396.286 896.562 396.068 896.632 395.868C896.704 395.669 896.916 395.567 897.123 395.636L904.465 398.252C904.662 398.323 904.766 398.542 904.696 398.741C904.64 398.897 904.493 398.995 904.335 398.995Z" fill="white"/>
<path d="M288.152 120.384C288.152 127.484 293.82 134.835 296.88 141.012C298.796 144.88 300.337 148.964 302.433 152.737C303.276 154.253 304.707 155.863 304.814 157.673C304.875 158.722 303.461 156.24 303.227 155.91C300.036 151.426 297.905 145.936 295.469 141.012C293.619 137.272 291.029 132.981 289.739 129.111" stroke="black" stroke-opacity="0.61" stroke-width="3" stroke-linecap="round"/>
<path d="M288.945 121.97H307.193" stroke="black" stroke-opacity="0.61" stroke-width="3" stroke-linecap="round"/>
<path d="M293.706 139.425C299.954 139.425 304.818 139.688 310.367 137.838" stroke="black" stroke-opacity="0.61" stroke-width="3" stroke-linecap="round"/>
<path d="M313.541 138.631C313.541 144.684 314.893 148.488 316.891 153.882C317.372 155.181 318.271 156.768 319.05 157.937C320.687 160.393 316.498 152.614 315.304 149.915C312.999 144.708 308.545 134.664 318.301 134.664" stroke="black" stroke-opacity="0.61" stroke-width="3" stroke-linecap="round"/>
<path d="M326.235 143.392C329.218 140.409 331.578 137.123 334.345 134.048C335.392 132.885 329.539 133.632 327.998 136.252C325.307 140.827 325.736 140.114 328.439 144.979C329.455 146.808 336.357 148.537 337.343 146.566" stroke="black" stroke-opacity="0.61" stroke-width="3" stroke-linecap="round"/>
<path d="M338.136 141.012C340.846 140.409 345.751 135.319 347.48 133.078C348.144 132.218 350.763 130.246 350.83 129.111C351.001 126.212 344.633 127.208 343.513 129.111C341.487 132.555 340.516 133.749 340.516 137.838C340.516 141.532 345.429 142.093 348.45 143.216C351.445 144.328 355.532 146.565 358.764 146.565" stroke="black" stroke-opacity="0.61" stroke-width="3" stroke-linecap="round"/>
<path d="M373.839 113.242C369.122 113.242 358.955 115.076 355.767 118.972C354.513 120.506 356.051 125.182 356.781 126.642C358.05 129.179 361.366 130.338 363.966 130.697C365.329 130.885 380.892 132.669 380.892 132.68C380.892 133.113 378.23 135.009 377.806 135.457C376.069 137.297 374.968 140.341 373.839 142.598" stroke="black" stroke-opacity="0.61" stroke-width="3" stroke-linecap="round"/>
<path d="M379.393 114.83C382.758 119.317 383.858 125.348 387.503 129.905C388.883 131.63 391.168 133.621 392.087 135.458" stroke="black" stroke-opacity="0.61" stroke-width="3" stroke-linecap="round"/>
<path d="M378.6 125.145C381.647 124.84 384.162 122.765 387.327 122.765" stroke="black" stroke-opacity="0.61" stroke-width="3" stroke-linecap="round"/>
<path d="M392.881 124.35C395.629 125.877 398.486 127.199 401.212 128.714C403.672 130.081 403.195 122.909 403.195 121.926C403.195 120.615 402.246 111.344 404.165 115.182C406.335 119.522 409.158 124.401 410.336 129.111" stroke="black" stroke-opacity="0.61" stroke-width="3" stroke-linecap="round"/>
<path d="M415.889 101.342C413.376 101.342 410.864 101.342 408.351 101.342C405.188 101.342 409.966 106.129 410.511 107.072C412.932 111.262 414.141 123.476 419.062 125.937" stroke="black" stroke-opacity="0.61" stroke-width="3" stroke-linecap="round"/>
<path d="M405.575 118.003C409.73 117.541 413.353 113.48 417.476 112.449" stroke="black" stroke-opacity="0.61" stroke-width="3" stroke-linecap="round"/>
<path d="M426.203 98.168C422.982 98.5259 414.688 98.2353 418.181 103.634C421.494 108.753 428.248 113.822 430.17 119.59" stroke="black" stroke-opacity="0.61" stroke-width="3" stroke-linecap="round"/>
<path d="M422.314 117.675C422.791 115.531 429.521 110.925 431.631 110.222" stroke="black" stroke-opacity="0.61" stroke-width="3" stroke-linecap="round"/>
<path d="M190.992 219.126C190.992 219.126 160.131 185.36 163.217 183.841C166.303 182.321 178.772 197.075 178.772 197.075C178.772 197.075 164.67 172.522 166.873 171.523C169.076 170.525 192.575 210.948 192.575 210.948C192.575 210.948 185.386 165.793 188.004 165.01C190.624 164.224 198.628 210.015 198.628 210.015C198.628 210.015 204.789 173.237 207.767 175.156C210.743 177.072 204.887 209.211 204.887 209.211C204.887 209.211 218 182.86 217.509 186.848C217.017 190.838 211.957 210.181 211.957 210.181C211.957 210.181 233.582 176.61 232.988 182.066C232.391 187.523 213.353 220.08 213.353 220.08L190.992 219.126Z" fill="#009D92"/>
<path d="M215.824 253.705L192.846 253.418C191.6 253.405 190.567 252.504 190.459 251.337L187.36 217.815C187.236 216.48 188.372 215.331 189.802 215.35L219.814 215.723C221.244 215.739 222.351 216.916 222.193 218.249L218.261 251.684C218.124 252.848 217.07 253.721 215.824 253.705Z" fill="#D84427"/>
<path d="M210.739 253.643L187.76 253.357C186.514 253.341 185.481 252.44 185.373 251.275L182.277 217.756C182.151 216.416 183.286 215.272 184.716 215.288L214.726 215.661C216.159 215.68 217.265 216.852 217.107 218.19L213.178 251.622C213.039 252.784 211.985 253.659 210.739 253.643Z" fill="#F2513B"/>
<path d="M880.984 195.693L867.865 203.075C867.309 203.387 866.605 203.19 866.293 202.634L855.411 183.292C855.097 182.736 855.295 182.033 855.85 181.721L868.97 174.339C869.525 174.027 870.228 174.223 870.541 174.779L881.424 194.122C881.737 194.677 881.539 195.38 880.984 195.693Z" fill="#D84427"/>
<path d="M883.1 194.502L869.979 201.884C869.424 202.197 868.721 202 868.409 201.445L857.525 182.101C857.213 181.546 857.411 180.842 857.965 180.531L871.086 173.148C871.641 172.836 872.344 173.034 872.656 173.589L883.54 192.931C883.852 193.486 883.655 194.19 883.1 194.502Z" fill="#F2513B"/>
<path d="M902.102 200.117V224.465C902.102 226.07 900.791 227.379 899.189 227.379H862.463C860.861 227.379 859.55 226.07 859.55 224.465V200.117C859.55 198.514 860.861 197.217 862.463 197.217H899.189C900.791 197.217 902.102 198.514 902.102 200.117Z" fill="#FFA143"/>
<path d="M883.734 200.117V224.465C883.734 226.07 882.911 227.379 881.902 227.379H858.814C857.806 227.379 856.982 226.07 856.982 224.465V200.117C856.982 198.514 857.806 197.217 858.814 197.217H881.902C882.911 197.217 883.734 198.514 883.734 200.117Z" fill="#E8821C"/>
<path d="M878.881 190.368H905L902.102 198.825H883.733L878.881 190.368Z" fill="#FFA143"/>
<path d="M857.182 198.825L850 188.288H878.881L883.734 198.825H857.182Z" fill="#E8821C"/>
<path d="M902.102 199.115H883.734C883.575 199.115 883.444 198.984 883.444 198.826C883.444 198.666 883.575 198.536 883.734 198.536H902.102C902.261 198.536 902.392 198.666 902.392 198.826C902.392 198.984 902.261 199.115 902.102 199.115Z" fill="white"/>
</svg>
