<svg width="400" height="103" viewBox="0 0 400 103" fill="none" xmlns="http://www.w3.org/2000/svg">
<path fill-rule="evenodd" clip-rule="evenodd" d="M172.525 14.4456C172.525 10.453 169.445 7.37296 165.452 7.37296C161.473 7.37296 158.378 10.453 158.378 14.4456C158.378 18.4374 161.472 21.5183 165.452 21.5183C169.444 21.5183 172.525 18.4383 172.525 14.4456ZM154.247 14.4456C154.247 8.24235 159.082 3.55908 165.452 3.55908C171.82 3.55908 176.655 8.24235 176.655 14.4456C176.655 20.6497 171.82 25.3321 165.452 25.3321C159.082 25.3321 154.248 20.6497 154.248 14.4456H154.247ZM195.649 10.6048C195.649 8.65786 194.406 7.30276 192.029 7.30276H188.381C188.198 7.30297 188.023 7.3758 187.893 7.50527C187.764 7.63474 187.691 7.81027 187.691 7.99337V13.1762C187.691 13.5575 188.001 13.8652 188.381 13.8652H192.029C194.406 13.8652 195.649 12.6366 195.649 10.6048ZM199.641 10.6464C199.641 14.4603 196.906 17.3468 192.651 17.3468H188.381C188.198 17.3468 188.022 17.4196 187.893 17.5491C187.763 17.6786 187.691 17.8543 187.691 18.0374V24.3664C187.691 24.5492 187.618 24.7244 187.489 24.8536C187.36 24.9828 187.184 25.0554 187.002 25.0554H184.264C184.174 25.0555 184.084 25.0378 184 25.0032C183.917 24.9686 183.841 24.9179 183.776 24.854C183.712 24.79 183.661 24.714 183.627 24.6303C183.592 24.5467 183.574 24.457 183.574 24.3664V4.52561C183.574 4.14439 183.882 3.83582 184.264 3.83582H192.651C196.905 3.83582 199.642 6.88888 199.642 10.6464H199.641ZM210.428 8.18765V11.9591C210.428 12.3403 210.736 12.6497 211.118 12.6497H217.267C217.647 12.6497 217.958 12.9583 217.958 13.3403V15.5795C217.958 15.9599 217.647 16.2701 217.267 16.2701H211.118C211.028 16.27 210.938 16.2877 210.854 16.3223C210.771 16.3569 210.694 16.4076 210.63 16.4716C210.566 16.5355 210.515 16.6115 210.481 16.6952C210.446 16.7788 210.428 16.8685 210.428 16.9591V20.7044C210.428 21.0864 210.736 21.3942 211.118 21.3942H218.29C218.67 21.3942 218.98 21.7044 218.98 22.084V24.3656C218.98 24.7477 218.67 25.0562 218.29 25.0562H207.001C206.91 25.0561 206.821 25.0382 206.737 25.0034C206.653 24.9686 206.577 24.9177 206.513 24.8536C206.449 24.7895 206.399 24.7134 206.364 24.6296C206.329 24.5459 206.312 24.4562 206.312 24.3656V4.52561C206.312 4.1452 206.62 3.83663 207.001 3.83663H218.29C218.67 3.83663 218.98 4.1452 218.98 4.52561V6.80643C218.98 7.18847 218.67 7.49704 218.29 7.49704H211.118C210.935 7.49704 210.76 7.5698 210.63 7.69932C210.5 7.82883 210.428 8.00449 210.428 8.18765ZM246.455 4.52561V24.3656C246.455 24.7468 246.144 25.0562 245.764 25.0562H242.891C242.787 25.0561 242.684 25.0326 242.591 24.9874C242.497 24.9421 242.415 24.8764 242.351 24.795L231.687 11.404C231.279 10.8938 230.457 11.1803 230.457 11.8342V24.3664C230.457 24.7477 230.147 25.057 229.766 25.057H227.086C226.903 25.057 226.728 24.9843 226.598 24.8548C226.469 24.7253 226.396 24.5496 226.396 24.3664V4.52561C226.396 4.1452 226.704 3.835 227.086 3.835H229.931C230.141 3.835 230.34 3.93133 230.47 4.09541L241.137 17.4391C241.544 17.9493 242.366 17.6603 242.366 17.0089V4.52561C242.366 4.1452 242.673 3.835 243.055 3.835H245.764C246.145 3.835 246.455 4.1452 246.455 4.52561ZM176.655 50.9926C176.655 57.2228 171.834 61.9068 165.452 61.9068C159.082 61.9068 154.248 57.2228 154.248 51.0195C154.248 44.817 159.082 40.1346 165.452 40.1346C169.115 40.1346 172.274 41.6913 174.282 44.1811C174.347 44.2599 174.393 44.3517 174.418 44.4502C174.443 44.5486 174.446 44.6514 174.427 44.7512C174.408 44.851 174.367 44.9454 174.308 45.0279C174.249 45.1103 174.172 45.1788 174.083 45.2285L171.714 46.5362C171.434 46.6913 171.074 46.6415 170.865 46.3983C169.58 44.8987 167.655 43.9468 165.437 43.9468C161.473 43.9468 158.378 46.973 158.378 51.1158C158.378 54.9991 161.127 58.0938 165.507 58.0938C168.623 58.0938 170.937 56.5346 171.952 54.0619C172.135 53.613 171.789 53.1199 171.304 53.1199H167.427C167.336 53.1199 167.246 53.102 167.163 53.0673C167.079 53.0326 167.003 52.9817 166.939 52.9176C166.875 52.8534 166.824 52.7773 166.789 52.6935C166.755 52.6097 166.737 52.5199 166.737 52.4293V50.413C166.737 50.0301 167.046 49.7215 167.427 49.7215H175.942C176.308 49.7215 176.606 50.004 176.632 50.3681C176.647 50.5681 176.655 50.7762 176.655 50.9926ZM200.139 51.0203C200.139 47.0277 197.057 43.9477 193.065 43.9477C189.087 43.9477 185.992 47.0277 185.992 51.0203C185.992 55.013 189.087 58.093 193.065 58.093C197.057 58.093 200.138 55.013 200.138 51.0203H200.139ZM181.86 51.0203C181.86 44.817 186.696 40.1338 193.065 40.1338C199.433 40.1338 204.27 44.817 204.27 51.0203C204.27 57.2236 199.433 61.9068 193.065 61.9068C186.696 61.9068 181.861 57.2236 181.861 51.0203H181.86ZM227.84 41.3452L220.322 61.1852C220.272 61.316 220.184 61.4286 220.069 61.5083C219.955 61.5879 219.818 61.6306 219.678 61.6309H216.376C216.236 61.631 216.099 61.5884 215.984 61.5088C215.869 61.4292 215.78 61.3163 215.731 61.1852L208.226 41.3452C208.186 41.2407 208.173 41.1282 208.186 41.0173C208.2 40.9063 208.24 40.8003 208.303 40.7083C208.367 40.6163 208.451 40.5411 208.55 40.4891C208.649 40.4371 208.759 40.4098 208.871 40.4097H211.738C212.029 40.4097 212.29 40.5942 212.388 40.8685L217.377 54.8513C217.596 55.4619 218.458 55.4619 218.677 54.8521L223.679 40.8685C223.727 40.7344 223.815 40.6184 223.931 40.5362C224.047 40.4541 224.186 40.4099 224.328 40.4097H227.195C227.307 40.4096 227.417 40.4368 227.516 40.4887C227.615 40.5407 227.7 40.6159 227.763 40.708C227.827 40.8 227.867 40.9061 227.88 41.0171C227.894 41.1281 227.88 41.2407 227.84 41.3452ZM238.512 44.7615V48.5346C238.512 48.9158 238.822 49.2244 239.202 49.2244H245.351C245.732 49.2244 246.042 49.5321 246.042 49.9142V52.1534C246.042 52.5346 245.731 52.844 245.351 52.844H239.202C239.019 52.844 238.844 52.9167 238.714 53.0463C238.585 53.1758 238.512 53.3514 238.512 53.5346V57.2791C238.512 57.6603 238.822 57.9689 239.202 57.9689H246.374C246.755 57.9689 247.063 58.2791 247.063 58.6595V60.9395C247.063 61.0301 247.045 61.1198 247.011 61.2035C246.976 61.2873 246.925 61.3634 246.861 61.4275C246.797 61.4916 246.721 61.5425 246.638 61.5773C246.554 61.612 246.464 61.63 246.374 61.6301H235.084C234.993 61.63 234.904 61.612 234.82 61.5773C234.736 61.5425 234.661 61.4916 234.597 61.4275C234.533 61.3634 234.482 61.2873 234.447 61.2035C234.413 61.1198 234.395 61.0301 234.395 60.9395V41.1019C234.395 40.7199 234.703 40.4113 235.084 40.4113H246.374C246.755 40.4113 247.063 40.7199 247.063 41.1019V43.3828C247.063 43.5655 246.99 43.7407 246.861 43.8699C246.732 43.9991 246.557 44.0717 246.374 44.0717H239.202C239.019 44.072 238.844 44.1448 238.714 44.2743C238.585 44.4037 238.512 44.5793 238.512 44.7623V44.7615ZM258.596 48.6726C258.596 49.053 258.906 49.3624 259.287 49.3624H262.492C264.468 49.3624 265.532 48.3534 265.532 46.6554C265.532 44.9836 264.468 43.8913 262.492 43.8913H259.287C259.103 43.8913 258.928 43.9641 258.798 44.0936C258.669 44.2231 258.596 44.3988 258.596 44.5819V48.6717V48.6726ZM261.642 52.6644H259.287C259.104 52.6646 258.928 52.7373 258.799 52.8666C258.669 52.9959 258.596 53.1712 258.596 53.3542V60.9395C258.596 61.0301 258.578 61.1199 258.544 61.2037C258.509 61.2875 258.458 61.3636 258.394 61.4278C258.33 61.4919 258.254 61.5428 258.17 61.5775C258.087 61.6122 257.997 61.6301 257.906 61.6301H255.169C255.078 61.63 254.989 61.612 254.905 61.5773C254.821 61.5425 254.745 61.4916 254.681 61.4275C254.617 61.3634 254.567 61.2873 254.532 61.2035C254.498 61.1198 254.48 61.0301 254.48 60.9395V41.1019C254.48 40.7199 254.789 40.4113 255.169 40.4113H262.769C267.134 40.4113 269.524 43.2293 269.524 46.6962C269.524 49.0187 268.331 50.8807 266.497 51.8774C266.416 51.9212 266.344 51.9809 266.287 52.0531C266.229 52.1252 266.187 52.2082 266.162 52.2971C266.138 52.386 266.131 52.479 266.143 52.5705C266.156 52.6619 266.186 52.75 266.233 52.8293L270.829 60.5893C270.891 60.6942 270.924 60.8136 270.925 60.9354C270.926 61.0572 270.895 61.1771 270.834 61.2829C270.774 61.3887 270.687 61.4766 270.581 61.5377C270.476 61.5988 270.356 61.631 270.234 61.6309H267.377C267.253 61.6312 267.132 61.598 267.025 61.5349C266.919 61.4719 266.831 61.3812 266.772 61.2726L262.247 53.0228C262.187 52.9144 262.099 52.824 261.993 52.7609C261.887 52.6979 261.765 52.6646 261.642 52.6644ZM297.704 41.1003V60.9403C297.704 61.3215 297.395 61.6309 297.014 61.6309H294.14C294.037 61.6308 293.934 61.6073 293.841 61.5621C293.747 61.5168 293.665 61.4511 293.601 61.3697L282.936 47.9779C282.529 47.4677 281.707 47.7542 281.707 48.4081V60.9403C281.707 61.3215 281.397 61.6309 281.016 61.6309H278.335C278.244 61.6308 278.154 61.6129 278.071 61.5781C277.987 61.5433 277.911 61.4924 277.847 61.4283C277.783 61.3642 277.732 61.2881 277.698 61.2043C277.663 61.1206 277.646 61.0309 277.646 60.9403V41.1003C277.646 40.7199 277.954 40.4097 278.335 40.4097H281.181C281.391 40.4097 281.589 40.506 281.72 40.6701L292.387 54.0138C292.793 54.524 293.616 54.235 293.616 53.5828V41.1011C293.616 40.7199 293.923 40.4097 294.305 40.4097H297.014C297.395 40.4097 297.704 40.7199 297.704 41.1003ZM329.268 41.1003V60.9403C329.268 61.0309 329.25 61.1206 329.216 61.2043C329.181 61.2881 329.13 61.3642 329.066 61.4283C329.002 61.4924 328.926 61.5433 328.843 61.5781C328.759 61.6129 328.669 61.6308 328.579 61.6309H325.842C325.659 61.6307 325.483 61.5579 325.354 61.4284C325.224 61.2989 325.151 61.1234 325.151 60.9403V49.4326C325.151 48.6766 324.109 48.4709 323.822 49.1713L318.904 61.2015C318.852 61.3283 318.763 61.4368 318.65 61.5132C318.536 61.5897 318.402 61.6306 318.265 61.6309H317.051C316.913 61.6307 316.779 61.5896 316.665 61.5128C316.551 61.4361 316.462 61.3272 316.411 61.1999L311.519 49.1656C311.233 48.4636 310.19 48.6677 310.19 49.4252V60.9403C310.19 61.3215 309.88 61.6309 309.5 61.6309H306.763C306.58 61.6307 306.405 61.5579 306.275 61.4284C306.146 61.2989 306.073 61.1234 306.073 60.9403V41.1003C306.073 40.7199 306.383 40.4097 306.763 40.4097H311.193C311.473 40.4097 311.724 40.5787 311.83 40.8375L317.015 53.3917C317.249 53.9599 318.053 53.9615 318.289 53.3942L323.524 40.835C323.577 40.7094 323.665 40.6021 323.778 40.5266C323.892 40.4511 324.025 40.4107 324.161 40.4105H328.579C328.959 40.4105 329.268 40.7199 329.268 41.1003ZM341.768 44.7615V48.5346C341.768 48.9158 342.078 49.2244 342.459 49.2244H348.608C348.989 49.2244 349.298 49.5321 349.298 49.9142V52.1534C349.298 52.244 349.28 52.3338 349.246 52.4176C349.211 52.5014 349.16 52.5775 349.096 52.6417C349.032 52.7058 348.956 52.7567 348.872 52.7914C348.789 52.8261 348.699 52.844 348.608 52.844H342.459C342.276 52.844 342.1 52.9167 341.97 53.0463C341.841 53.1758 341.768 53.3514 341.768 53.5346V57.2791C341.768 57.6603 342.078 57.9689 342.459 57.9689H349.63C350.011 57.9689 350.319 58.2791 350.319 58.6595V60.9395C350.319 61.0301 350.302 61.1198 350.267 61.2035C350.232 61.2873 350.182 61.3634 350.118 61.4275C350.054 61.4916 349.978 61.5425 349.894 61.5773C349.81 61.612 349.721 61.63 349.63 61.6301H338.34C338.25 61.63 338.16 61.612 338.076 61.5773C337.993 61.5425 337.917 61.4916 337.853 61.4275C337.789 61.3634 337.738 61.2873 337.704 61.2035C337.669 61.1198 337.651 61.0301 337.651 60.9395V41.1019C337.651 40.7199 337.961 40.4113 338.34 40.4113H349.63C350.011 40.4113 350.319 40.7199 350.319 41.1019V43.3828C350.319 43.5655 350.247 43.7407 350.117 43.8699C349.988 43.9991 349.813 44.0717 349.63 44.0717H342.459C342.276 44.072 342.1 44.1448 341.971 44.2743C341.841 44.4037 341.768 44.5793 341.768 44.7623V44.7615ZM377.795 41.1003V60.9403C377.795 61.3215 377.485 61.6309 377.104 61.6309H374.232C374.128 61.6308 374.026 61.6073 373.932 61.5621C373.839 61.5168 373.757 61.4511 373.692 61.3697L363.028 47.9779C362.62 47.4677 361.798 47.7542 361.798 48.4081V60.9403C361.798 61.3215 361.488 61.6309 361.108 61.6309H358.425C358.335 61.6309 358.245 61.6131 358.161 61.5783C358.077 61.5436 358.001 61.4927 357.937 61.4286C357.873 61.3645 357.822 61.2883 357.788 61.2045C357.753 61.1208 357.735 61.031 357.735 60.9403V41.1003C357.735 40.7199 358.044 40.4097 358.425 40.4097H361.272C361.482 40.4097 361.68 40.506 361.811 40.6701L372.477 54.0138C372.882 54.524 373.706 54.235 373.706 53.5828V41.1011C373.706 40.7199 374.014 40.4097 374.396 40.4097H377.104C377.485 40.4097 377.795 40.7199 377.795 41.1003Z" fill="black"/>
<mask id="mask0_7864_47990" style="mask-type:alpha" maskUnits="userSpaceOnUse" x="384" y="40" width="16" height="22">
<path d="M384.175 40.4105H399.207V61.6309H384.175V40.4105Z" fill="white"/>
</mask>
<g mask="url(#mask0_7864_47990)">
<path fill-rule="evenodd" clip-rule="evenodd" d="M398.517 44.0726H394.438C394.256 44.0726 394.08 44.1452 393.951 44.2746C393.821 44.404 393.749 44.5794 393.749 44.7624V60.9403C393.749 61.1235 393.676 61.2991 393.546 61.4287C393.417 61.5582 393.241 61.6309 393.058 61.6309H390.336C390.153 61.6307 389.977 61.5579 389.848 61.4284C389.718 61.2989 389.646 61.1233 389.646 60.9403V44.7624C389.646 44.6716 389.628 44.5818 389.593 44.4979C389.559 44.4141 389.508 44.3379 389.444 44.2738C389.38 44.2096 389.303 44.1588 389.22 44.1241C389.136 44.0894 389.046 44.0716 388.955 44.0717H384.865C384.682 44.0717 384.507 43.999 384.377 43.8695C384.248 43.74 384.175 43.5643 384.175 43.3811V41.1011C384.175 40.7199 384.485 40.4105 384.865 40.4105H398.517C398.897 40.4105 399.207 40.7207 399.207 41.1011V43.3811C399.207 43.7632 398.897 44.0717 398.517 44.0717" fill="black"/>
</g>
<path fill-rule="evenodd" clip-rule="evenodd" d="M167.787 83.7542C167.787 81.8073 166.543 80.4522 164.166 80.4522H160.519C160.336 80.4524 160.16 80.5252 160.031 80.6547C159.902 80.7841 159.829 80.9597 159.828 81.1428V86.3248C159.828 86.706 160.139 87.0146 160.519 87.0146H164.166C166.543 87.0146 167.787 85.7852 167.787 83.7542ZM171.779 83.7967C171.779 87.6089 169.044 90.4954 164.788 90.4954H160.519C160.336 90.4954 160.16 90.5682 160.031 90.6977C159.901 90.8272 159.828 91.0029 159.828 91.186V97.515C159.829 97.6056 159.811 97.6954 159.776 97.7791C159.742 97.8629 159.691 97.9389 159.627 98.003C159.563 98.0671 159.487 98.1179 159.403 98.1525C159.319 98.1872 159.229 98.2049 159.139 98.2048H156.402C156.311 98.2049 156.221 98.1872 156.137 98.1525C156.054 98.1179 155.977 98.0671 155.913 98.0031C155.849 97.939 155.798 97.8629 155.764 97.7792C155.729 97.6954 155.711 97.6057 155.711 97.515V77.6742C155.711 77.293 156.02 76.9852 156.402 76.9852H164.788C169.044 76.9852 171.78 80.0383 171.78 83.7967H171.779ZM182.565 85.2473C182.565 85.6277 182.875 85.9379 183.255 85.9379H186.46C188.436 85.9379 189.5 84.9281 189.5 83.2285C189.5 81.5567 188.436 80.4669 186.46 80.4669H183.255C183.165 80.4668 183.075 80.4845 182.991 80.5191C182.908 80.5536 182.832 80.6043 182.767 80.6683C182.703 80.7323 182.652 80.8083 182.618 80.8919C182.583 80.9756 182.565 81.0653 182.565 81.1558V85.2473ZM185.61 89.2391H183.255C183.072 89.2393 182.897 89.312 182.768 89.4413C182.638 89.5706 182.565 89.7459 182.565 89.9289V97.5142C182.565 97.6049 182.547 97.6946 182.513 97.7784C182.478 97.8622 182.427 97.9384 182.363 98.0025C182.299 98.0666 182.223 98.1175 182.139 98.1522C182.055 98.1869 181.966 98.2048 181.875 98.2048H179.137C179.046 98.2047 178.957 98.1868 178.873 98.152C178.789 98.1172 178.714 98.0663 178.65 98.0022C178.586 97.9381 178.535 97.862 178.5 97.7782C178.466 97.6945 178.448 97.6048 178.448 97.5142V77.6742C178.448 77.2938 178.757 76.9852 179.137 76.9852H186.737C191.102 76.9852 193.493 79.8032 193.493 83.2709C193.493 85.5909 192.301 87.4554 190.464 88.4505C190.383 88.4945 190.312 88.5544 190.255 88.6266C190.197 88.6987 190.155 88.7817 190.131 88.8706C190.106 88.9594 190.1 89.0523 190.112 89.1437C190.124 89.2351 190.155 89.323 190.202 89.4024L194.796 97.1632C194.858 97.2679 194.891 97.3873 194.892 97.509C194.893 97.6308 194.862 97.7507 194.802 97.8565C194.742 97.9623 194.654 98.0503 194.549 98.1114C194.444 98.1726 194.324 98.2048 194.202 98.2048H191.345C191.222 98.2048 191.1 98.1715 190.994 98.1085C190.887 98.0454 190.8 97.9549 190.74 97.8465L186.215 89.5967C186.155 89.4884 186.068 89.3981 185.961 89.3351C185.855 89.272 185.734 89.2386 185.611 89.2383L185.61 89.2391ZM217.861 87.595C217.861 83.6032 214.78 80.5224 210.788 80.5224C206.81 80.5224 203.714 83.6024 203.714 87.595C203.714 91.5877 206.81 94.6677 210.788 94.6677C214.78 94.6677 217.861 91.5877 217.861 87.595ZM199.584 87.595C199.584 81.3909 204.419 76.7085 210.788 76.7085C217.156 76.7085 221.993 81.3909 221.993 87.595C221.993 93.7983 217.156 98.4816 210.788 98.4816C204.419 98.4816 199.584 93.7983 199.584 87.595ZM235.997 94.5436C240.501 94.5436 242.683 92.0848 242.683 87.595C242.683 83.1044 240.501 80.6465 235.997 80.6465H233.703C233.612 80.6463 233.522 80.6641 233.439 80.6987C233.355 80.7333 233.279 80.7841 233.214 80.8482C233.15 80.9123 233.099 80.9883 233.065 81.0721C233.03 81.1558 233.012 81.2456 233.012 81.3362V93.853C233.012 94.235 233.322 94.5436 233.703 94.5436H235.997H235.997ZM228.91 77.6742C228.91 77.2938 229.219 76.9852 229.6 76.9852H236.175C243.224 76.9852 246.951 81.1697 246.951 87.595C246.951 94.0195 243.224 98.2048 236.175 98.2048H229.6C229.509 98.2048 229.419 98.1869 229.336 98.1522C229.252 98.1175 229.176 98.0666 229.112 98.0025C229.048 97.9384 228.997 97.8622 228.962 97.7784C228.928 97.6946 228.91 97.6049 228.91 97.5142V77.6742ZM253.568 90.8554V77.675C253.568 77.293 253.877 76.9844 254.258 76.9844H256.995C257.375 76.9844 257.686 77.293 257.686 77.675V90.2195C257.686 93.604 259.633 94.835 262.189 94.835C264.758 94.835 266.705 93.604 266.705 90.2195V77.675C266.705 77.293 267.015 76.9844 267.396 76.9844H270.147C270.528 76.9844 270.837 77.293 270.837 77.675V90.8554C270.837 95.9248 267.106 98.4807 262.189 98.4807C257.299 98.4807 253.569 95.9256 253.569 90.8554H253.568ZM277.326 87.595C277.326 81.3909 282.148 76.7085 288.53 76.7085C291.398 76.7085 294.131 77.7746 296.099 79.5101C296.172 79.5738 296.231 79.6521 296.272 79.74C296.313 79.828 296.336 79.9235 296.338 80.0205C296.34 80.1176 296.321 80.2139 296.284 80.3035C296.246 80.393 296.19 80.4737 296.12 80.5403L294.224 82.3183C294.099 82.4363 293.934 82.5028 293.762 82.5046C293.59 82.5064 293.424 82.4434 293.296 82.3281C292.046 81.1893 290.338 80.5224 288.529 80.5224C284.537 80.5224 281.457 83.5885 281.457 87.595C281.457 91.6007 284.537 94.6677 288.53 94.6677C290.338 94.6677 292.046 94.0007 293.296 92.8611C293.424 92.7459 293.59 92.6831 293.762 92.685C293.934 92.687 294.099 92.7537 294.224 92.8718L296.12 94.6505C296.19 94.7172 296.246 94.7978 296.283 94.8873C296.321 94.9767 296.339 95.073 296.337 95.1699C296.335 95.2669 296.313 95.3623 296.272 95.4501C296.231 95.538 296.172 95.6162 296.099 95.6799C294.131 97.4146 291.398 98.4816 288.53 98.4816C282.148 98.4816 277.326 93.7983 277.326 87.595ZM315.398 80.6465H311.322C311.231 80.6465 311.141 80.6643 311.057 80.699C310.974 80.7338 310.898 80.7846 310.833 80.8488C310.769 80.9129 310.719 80.9891 310.684 81.0728C310.649 81.1566 310.632 81.2464 310.632 81.3371V97.515C310.632 97.6056 310.614 97.6953 310.579 97.7789C310.544 97.8626 310.493 97.9386 310.429 98.0025C310.365 98.0665 310.289 98.1172 310.205 98.1518C310.121 98.1864 310.032 98.2041 309.941 98.204H307.219C307.128 98.2041 307.038 98.1864 306.955 98.1518C306.871 98.1172 306.795 98.0665 306.731 98.0025C306.667 97.9386 306.616 97.8626 306.581 97.7789C306.546 97.6953 306.528 97.6056 306.528 97.515V81.3371C306.528 81.2464 306.511 81.1565 306.476 81.0727C306.441 80.9889 306.391 80.9127 306.327 80.8485C306.262 80.7844 306.186 80.7335 306.103 80.6988C306.019 80.6641 305.929 80.6463 305.838 80.6465H301.748C301.657 80.6465 301.567 80.6286 301.484 80.5939C301.4 80.5592 301.324 80.5083 301.26 80.4441C301.196 80.38 301.145 80.3039 301.11 80.2201C301.076 80.1363 301.058 80.0465 301.058 79.9558V77.675C301.058 77.293 301.366 76.9844 301.748 76.9844H315.398C315.78 76.9844 316.089 77.293 316.089 77.675V79.9558C316.089 80.3362 315.779 80.6465 315.398 80.6465ZM321.077 94.6073L322.571 92.742C322.63 92.6671 322.705 92.6054 322.789 92.561C322.874 92.5165 322.967 92.4903 323.062 92.484C323.157 92.4777 323.253 92.4914 323.342 92.5243C323.432 92.5572 323.513 92.6086 323.582 92.675C325.008 94.0522 326.974 94.9852 328.7 94.9852C330.357 94.9852 331.56 94.1297 331.56 92.6236C331.56 90.7305 329.668 90.026 327.25 88.9632C324.473 87.7469 321.544 86.3656 321.544 82.6203C321.544 78.8628 324.473 76.7085 328.091 76.7085C330.486 76.7085 332.74 77.6032 334.59 79.0824C334.874 79.3093 334.916 79.7256 334.699 80.0187L333.363 81.8326C333.309 81.9073 333.239 81.9702 333.16 82.0175C333.08 82.0647 332.992 82.0954 332.9 82.1076C332.808 82.1198 332.715 82.1133 332.626 82.0885C332.537 82.0636 332.453 82.021 332.381 81.9632C330.955 80.7803 329.344 80.204 327.996 80.204C326.655 80.204 325.593 80.8816 325.593 82.2065C325.593 83.933 327.415 84.6105 329.861 85.6603C332.651 86.8913 335.677 88.4097 335.677 92.3607C335.677 96.4228 332.473 98.4669 328.686 98.4669C325.956 98.4669 323.156 97.3713 321.166 95.5607C321.032 95.4428 320.949 95.2785 320.933 95.1013C320.917 94.9241 320.969 94.7474 321.078 94.6073" fill="black"/>
<mask id="mask1_7864_47990" style="mask-type:alpha" maskUnits="userSpaceOnUse" x="0" y="0" width="37" height="102">
<path d="M0 0.665405H36.4653V101.376H0V0.665405Z" fill="white"/>
</mask>
<g mask="url(#mask1_7864_47990)">
<path fill-rule="evenodd" clip-rule="evenodd" d="M36.1151 91.2229C36.4477 90.6501 36.5486 89.9717 36.3969 89.3269C36.2453 88.6821 35.8527 88.1197 35.2996 87.7552C23.3339 79.9135 15.4245 66.3952 15.4245 51.0205C15.4245 35.6466 23.3339 22.1274 35.2996 14.2866C35.8526 13.9216 36.2452 13.359 36.3968 12.714C36.5484 12.0689 36.4476 11.3903 36.1151 10.8172L31.0073 1.97067C30.2571 0.67108 28.5739 0.275161 27.3127 1.08577C10.8882 11.6352 0 30.0507 0 51.0205C0 71.9911 10.8882 90.4058 27.3127 100.955C28.5739 101.765 30.2571 101.369 31.0073 100.071L36.1151 91.2229Z" fill="#1361F0"/>
</g>
<path fill-rule="evenodd" clip-rule="evenodd" d="M87.6457 1.97053L82.5371 10.8179C82.2044 11.3908 82.1035 12.0694 82.2552 12.7143C82.4068 13.3593 82.7995 13.9218 83.3526 14.2864C95.3183 22.1273 103.227 35.6464 103.227 51.0195C103.227 66.395 95.3183 79.9126 83.3526 87.7542C82.7993 88.1188 82.4065 88.6813 82.2549 89.3263C82.1032 89.9713 82.2042 90.6499 82.5371 91.2228L87.6457 100.071C88.395 101.369 90.0783 101.765 91.3403 100.954C107.764 90.4056 118.651 71.9909 118.651 51.0195C118.651 30.0505 107.764 11.6358 91.3403 1.08481C90.0791 0.275018 88.395 0.670936 87.6457 1.97053Z" fill="#1361F0"/>
</svg>
